<svg version="1.2" xmlns="http://www.w3.org/2000/svg" viewBox="0 0 1080 1080" width="1080" height="1080">
	<title>New Project</title>
	<style>
		.s0 { fill: #ffffff } 
		.s1 { fill: #edac6b } 
		.s2 { fill: #16375e } 
	</style>
	<g id="&lt;Group&gt;">
		<g id="&lt;Group&gt;">
			<g id="&lt;Group&gt;">
				<g id="&lt;Group&gt;">
					<path id="&lt;Path&gt;" class="s0" d="m1040.1 350.2v-0.1c-11.3-31-37.3-54.3-69.2-65.7q4.2-6.5 7.3-13.6c10.9-25.1 10.7-52.6-0.7-77.4-24-52.1-90.5-77.5-151.4-57.6l-319.1 103.9c-32.7-32.1-69.4-49.1-109.1-50.5-82.3-3-150.4 62.8-178 94.1q-3 2.3-5.6 5.4c-3 3.7-69.9 86.1-73.3 205.6l-92.6 20.8c-19.5 4.4-31.9 24-27.5 43.6 1.8 8.3 6.3 15.3 12.4 20.2l28.3 191.5q-0.7 1.2-1.4 2.4c-4.8 8.5-6 18.4-3.4 27.8 2.7 9.5 8.9 17.3 17.5 22.1 8.6 4.8 18.9 5.9 27.5 3.2l165.9-46.3c66 63.7 132.4 77.8 177.7 78.1h1.2c4 0 8-0.1 11.8-0.3 68.4-3.6 121.5-35.7 150-65.5l209.4-18.2c36.7-4.6 67.3-22.4 83.8-48.7 13.4-21.4 16.3-46.2 8.2-70.1-3.4-10.2-8.9-19.9-16-28.6l2.9-0.6c31.4-6.4 57.4-22.1 73.4-44.3 2.5-3.5 4.7-7 6.5-10.5 11.8-22.3 12.8-47.3 3-70.6-3-7-7-13.7-11.8-20 29.3-9.2 53.3-28.2 66.7-53 12.9-24.1 14.9-51.5 5.6-77.1z"/>
					<path id="&lt;Path&gt;" class="s1" d="m1009.4 378.9c0-6.7-1.1-13.6-3.6-20.4-3.3-9-8.7-17.2-15.6-24.1-3.4-3.4-7.3-6.6-11.4-9.4-4.1-2.8-8.6-5.3-13.3-7.4-4.6-2.1-9.6-3.9-14.7-5.3q-3.8-1-7.7-1.7c-5.2-0.9-10.6-1.5-16.1-1.6-8.1-0.1-16.4 0.7-24.7 2.7l-97.5 23.2-14 3.3-74 17.6-44.9 10.7 224.1-73.1c16-5.2 29.1-14.1 38.4-25 9.2-10.9 14.6-23.8 15.2-37.1 0.5-8.9-1.2-17.9-5.3-26.7-5.6-12.3-15.3-22.4-27.2-29.7q-2.8-1.7-5.8-3.3c-3.3-1.7-6.8-3.2-10.4-4.5-3-1.1-6-2-9.1-2.7-17.2-4.3-36.2-4-54.4 1.9l-184 60-157.3 51.3c-103.5-123.8-218.4-9.7-252.2 29.6q-1.5 0.6-1.5 0.6c0 0-3.2 4-8.2 11.2-0.1 0.2-0.3 0.5-0.3 0.5-18.9 27.6-62.4 102.5-55.9 199.8l-121.5 27.3 35.5 240 186.8-52.1c128.4 140.4 273 70.4 311.5 18.2l223-19.4c45.5-5.7 73.2-37.4 61.9-70.8-11.3-33.4-57.3-55.9-102.8-50.1l-37.5 4.7 154.6-31.3c8.4-1.7 16.2-4.3 23.1-7.6q3.4-1.6 6.6-3.5c3.8-2.2 7.3-4.7 10.4-7.3 2.2-1.8 4.2-3.6 6-5.6 13.5-14.4 18.1-33.1 10.4-51.3q-1.3-2.9-2.9-5.7c-0.3-0.7-0.8-1.3-1.2-2-0.7-1.1-1.4-2.2-2.2-3.3-0.7-0.9-1.4-1.7-2-2.5-0.7-0.8-1.4-1.7-2.1-2.5-0.9-0.9-1.8-1.8-2.8-2.8q-0.8-0.8-1.7-1.7-1.8-1.6-3.7-3.1-0.6-0.4-1.2-0.9-2.3-1.8-4.7-3.4-0.2-0.1-0.3-0.2c-18.4-12-43.4-18.2-68.7-16l97.8-23.3q4.1-0.9 8-2.2c13-4.3 24-11.1 32.4-19.5q2.5-2.6 4.7-5.3c2-2.4 3.7-5 5.3-7.7q2.4-3.9 4.1-8c2.9-6.9 4.5-14.1 4.6-21.5z"/>
					<path id="&lt;Compound Path&gt;" fill-rule="evenodd" class="s2" d="m187.5 518.7c-6.3-94.4 36.3-167.7 54.8-194.7 1.3-1.6 4-5 7.9-9.6 3.3-3.9 8.7-10 16-17.4 30.7-31.2 78-68 130-66 31.3 1.1 60.7 16.8 87.5 46.7 2.5 2.8 5 5.7 7.5 8.7 6.8 8.4 13.5 17.9 20 28.1 113.7 181.1 34.7 252.4 21.3 262.7-5.6 0.3-20.6-0.2-38.5-12.7-19.5-13.6-46.9-45-66.2-116.7-4-28.7-10.8-49.5-10.9-49.7-1.5-4.7-6.5-7.4-11.3-6.2-4.8 1.2-7.8 5.9-7 10.8 2.9 16.7 6.4 32.6 10.2 46.9 7.7 54.7 3.5 124.2-60.4 145.1-4.9 1.6-7.6 7-6 11.9 1.2 3.9 4.8 6.5 8.9 6.6q1.5 0 3-0.5c44.1-14.4 69.9-49.9 75.3-103.2 14.8 32.6 33 56.4 54.1 70.9 29.1 20 53.1 15.5 54.1 15.2q1.8-0.3 3.4-1.4c1.2-0.7 116.9-81.3-14-289.7-4.8-7.7-9.9-15.1-15.2-22.1l328.3-107c38.5-12.6 81.2 2.3 95.4 33.1 5.9 12.7 6 26.8 0.3 39.7-7.2 16.5-22.8 29.7-43 36.2l-306.7 100c-2.4 0.8-4.4 2.5-5.5 4.7-1.2 2.3-1.4 4.8-0.6 7.3 1.3 3.8 4.8 6.5 9 6.5q1.5 0 2.9-0.5l82.2-26.8 230.2-54.7c39.3-9.3 80.8 9 92.4 40.9 4.8 13.1 3.7 27.1-2.9 39.5-8.6 15.9-25.3 27.7-45.9 32.6l-96.6 23.1c-4.8 0.4-9.5 1.1-14.2 2l-54.8 14.3-183.1 43.5c-5.1 1.3-8.2 6.4-7 11.4 1.2 5.1 6.3 8.2 11.4 7.1l248.5-59.2c20.4-1.9 40.8 1.9 57.5 10.6l2.3 1.4c2.3 1.3 4.5 2.7 6.6 4.2q2.4 1.7 4.6 3.5 1.5 1.4 3 2.8c2 1.9 3.9 4 5.5 6.2l3.2-2.4-2.5 3.4q3 4.1 4.8 8.4c4.4 10.3 3.9 21.1-1.4 31.1q-1.4 2.8-3.3 5.4-1.7 2.3-3.7 4.5c-9.4 10.2-24.1 17.8-41.3 21.3l-292.4 59.2c-2.4 0.5-4.6 2-6 4.1-1.4 2.1-1.9 4.6-1.4 7.1 0.9 4.4 4.8 7.6 9.3 7.6 0.7 0 1.4-0.1 1.9-0.2l137.1-27.8 37.5-4.7c41.1-5.3 82.7 14.3 92.7 43.7 3.6 10.7 2.3 21.4-3.7 30.9-9.1 14.6-27.5 24.7-50.1 27.5l-223 19.4c-2.7 0.2-5.2 1.6-6.8 3.8-19.8 26.9-68 57.2-126.7 60.2-42.5 2.1-106.6-9.7-170.2-79.2-2.4-2.7-6.2-3.7-9.6-2.7l-186.8 52.1c-2.4 0.7-4.4 2.3-5.7 4.5-1.2 2.2-1.5 4.7-0.8 7.2 0.6 2.5 2.3 4.5 4.5 5.8 2.2 1.2 4.8 1.5 7.1 0.8l181.3-50.7c63.1 66.8 126.9 81.2 169.6 81.4q0.6 0 1.2 0 5.3 0 10.4-0.2c62.4-3.3 114.1-34.5 138.3-64.5l219.2-19.1c28.6-3.6 52-16.8 64.2-36.2 9-14.3 10.9-31 5.5-47.1-7.7-22.7-29.7-41.7-58.3-51.1l65.5-13.3c24.6-5 44.8-16.8 56.7-33.5q2.6-3.6 4.6-7.4c7.9-14.9 8.6-31.8 2-47.3-8.1-19.2-26.3-34.6-50-43.1l47.8-11.3c25.9-6.2 47.1-21.5 58.1-42.1 9.3-17.2 10.8-36.8 4.1-55-14.8-40.7-66.2-64.3-114.6-52.8l-5.1 1.2 3.9-1.3c25.2-8.2 45.1-25.2 54.5-46.6 7.8-17.9 7.7-37.5-0.5-55.2-18-39.2-71.2-58.7-118.4-43.3l-335.3 109.3c-30.7-34.8-65.1-53.2-102.3-54.5-72.6-2.5-134.8 59.6-158.9 87.3-1 0.6-2 1.4-2.9 2.4-2.9 3.6-71.9 88.5-67 210l-113.7 25.5c-5.1 1.2-8.3 6.3-7.1 11.3 1.1 5.1 6.2 8.3 11.3 7.2l121.5-27.3c4.6-1 7.7-5.1 7.4-9.8zm748.3-15.3z"/>
					<path id="&lt;Path&gt;" class="s2" d="m489.8 719.4c1.6 3.3 4.9 5.3 8.5 5.3 1.5 0 2.9-0.3 4.2-0.9 2.3-1.2 4-3.1 4.8-5.5 0.8-2.4 0.6-5-0.5-7.2-38.6-78.5-97.8-79.6-100.2-79.7q-0.1 0-0.1 0c-5.2 0-9.4 4.2-9.5 9.4 0 5.2 4.2 9.5 9.4 9.6 2 0 50.1 1.5 83.4 69z"/>
				</g>
			</g>
		</g>
	</g>
</svg>