<svg version="1.2" xmlns="http://www.w3.org/2000/svg" viewBox="0 0 1080 1080" width="1080" height="1080">
	<title>New Project</title>
	<style>
		.s0 { fill: #ffffff } 
		.s1 { fill: #edac6b } 
		.s2 { fill: #16375e } 
	</style>
	<g id="&lt;Group&gt;">
		<g id="&lt;Group&gt;">
			<g id="&lt;Group&gt;">
				<path id="&lt;Path&gt;" class="s0" d="m703.5 992l-7.2-116.6c140.8-45.1 215-152.5 218.2-157.2q2.8-4.1 4.7-8.7c33.1-52.4 80.7-149.7 50.2-242.8-7.9-24-20.6-45.8-37.9-65.1l17.9-226.8c2.5-31.5-8.1-62.2-29.8-86.5-25-27.7-62.3-44.2-102.6-45.3-6.7-0.2-13.6 0-20.5 0.7-20.3 2.1-39.8 8.1-57.1 17.3-6.2-10.3-14.2-19.7-23.7-27.9-28.2-24.5-67.3-36.3-107.4-32.4-6.7 0.7-13.5 1.8-20.2 3.3-37.7 8.7-69.4 30-89.2 58.5-29.3-15.7-65.2-19.7-99.9-10.9-6.4 1.6-12.8 3.6-18.9 6-29.3 11.6-53.3 31-69.1 55.2-20.7-4.5-42.7-4.1-64.5 1.4-6.2 1.5-12.4 3.5-18.4 5.9-60.6 23.9-96.3 83-84.9 140.5l7.2 36.5c-39.4 52.8-56.8 133-46.5 218.7 2.7 23 7.6 46.2 14.3 69 19.1 64.6 69.8 178.7 197 240.7l2 209.8c0.1 12.1 4.9 23.4 13.4 31.8 8.7 8.5 20.1 13 32.1 12.9 12-0.1 23.2-4.9 31.7-13.6q1.2-1.2 2.3-2.4l236.3-32.2c8.3 5.7 18.2 8.4 28.4 7.8 24.7-1.6 43.6-22.9 42.1-47.6z"/>
				<path id="&lt;Path&gt;" class="s1" d="m652.4 820.5c117.4-25.6 191.2-102.8 217.4-134.6 0 0 0.2-0.3 0.4-0.6 6.8-8.2 10.4-13.5 10.4-13.5 0 0 0.1-0.6 0.3-1.9 30.3-46.5 106.4-184.8 6.5-272.8 0.8-3.5 1.5-7.1 1.8-10.8l18.7-236c3.5-44.6-36.3-81.9-88.9-83.3q-7.5-0.2-14.7 0.5c-46.1 4.7-83.7 37.2-86.9 77.6l-0.5 6.7-2.5-55.5c-2.1-44.7-46.1-76.8-98.5-71.8q-7.4 0.8-14.5 2.4c-45.2 10.4-78.5 47.3-76.7 87.7l3.2 70.3-11.3-56.9c-8.3-42-54.6-66.1-103.4-53.8q-6.9 1.8-13.4 4.3c-34.1 13.5-57.9 43-60.8 74.4-19-16.7-48.1-23.7-78.3-16.1q-6.6 1.7-12.8 4.2c-39.5 15.5-64.5 53.5-57.3 89.9l11.4 58c-99 99.4-65.6 397.7 161.2 486.2l2.3 238.9 296.3-40.3z"/>
				<path id="&lt;Compound Path&gt;" fill-rule="evenodd" class="s2" d="m240.1 142.8c4.6-1.9 9.4-3.4 14.2-4.6 25.7-6.5 52.1-3.7 73.3 7.7 9.2-28.9 32.8-53.1 64.4-65.6 4.8-1.9 9.8-3.5 14.8-4.7 29.1-7.4 58.9-3.3 81.8 11.2 8.9 5.7 16.5 12.8 22.5 21.1 7.3-37.9 39.9-69.6 84.1-79.7 5.3-1.2 10.7-2.1 16-2.6 31.1-3 61.1 5.8 82.4 24.3 17.6 15.3 27.9 36 28.9 58.4 17.9-22 45.8-36.5 77.1-39.7 5.4-0.6 10.8-0.8 16.2-0.6 31.2 0.8 59.8 13.3 78.7 34.3 15.6 17.4 23.2 39.2 21.4 61.6l-18.6 236q-0.2 2.8-0.7 5.5c19.3 18.3 33 39.6 40.9 63.4 28.3 84.9-24.4 180-49 218-0.3 1.5-0.9 3-1.8 4.2-3.2 4.8-79.7 115.4-225.6 151.3l8.8 143.4c0.4 6.4-4.5 11.9-10.9 12.3-3.2 0.2-6.2-0.8-8.5-2.9-2.4-2.1-3.7-5-3.9-8.1l-9.4-153.1c-0.3-5.8 3.5-10.9 9.2-12.1 113.7-24.9 185.8-100.3 211.4-131.5 1.1-1.5 4.4-6 8.9-12.9 5-7.6 10.2-16.3 15.1-25 25.6-45.8 52.4-112.9 34.7-172.6l-1.2-3.7c-6.2-18.8-16.9-35.9-31.8-50.9-3.2-3.2-6.7-6.3-10.3-9.3-12.2-10.2-26.7-19.4-43.1-27.4-4.2-2-8.5-3.9-12.9-5.8-12.3-5.2-25.8-9.9-40.1-14-16.8-4.8-33.6-9-50.1-12.4-4.4-1-8.8-1.8-13.1-2.6q-4.7-0.9-9.2-1.6-6.6-1.2-13.1-2.1c-49.4-7.1-93-6-129.3 3.3-4.4 1.2-8.5 2.4-12.6 3.7q-5 1.6-9.7 3.4c-4.5 1.8-8.7 3.6-12.8 5.5-48.1 23-64.6 58-68.4 67.6 0.9 3.9 3.2 11.7 9.5 21 2.6 3.8 5.8 7.7 9.6 11.7 2.7 2.8 5.6 5.6 9.1 8.4 23.1 18.7 70.3 40.5 163.9 38.3 33.9-4.8 59.3-4 59.5-4 6.2 0.2 11.1 5.1 11.3 11.2 0.2 6.1-4.4 11.4-10.4 12-20.9 2.3-41 3.7-59.6 4.1-66.8 9.6-147.7 38.4-150.5 121.1-0.2 6.5-5.6 11.5-12 11.3-6.3-0.2-11.5-5.8-11.3-12.1 2-56.9 35.4-99.6 97.2-124.3-44-6.4-78.7-19.7-103.4-39.9-6.1-5-11.5-10.5-16.5-16.6-18.6-0.5-35.9-5.6-50.3-14.7q-0.8-0.4-1.4-0.9c-12.8 28.2-40 50.4-72.6 58.7-27.9 7-56.6 3-78.6-10.9-18.1-11.5-30.5-29.2-34.6-49.6l-25.9-130.6c-28.2 41.2-40.1 104.8-31.9 173 11.8 99.7 71.6 224.5 204 276.1 4.5 1.8 7.4 6 7.4 10.8l2.3 239c0 3.1-1.1 6-3.3 8.2-2.2 2.3-5.1 3.5-8.2 3.5-3.2 0.1-6.1-1.1-8.3-3.3-2.3-2.2-3.5-5.1-3.5-8.2l-2.2-231.2c-129.4-53.9-179.7-166.2-198.2-228.6-6.2-21-10.7-42.4-13.2-63.5-10-84.1 8.3-160.8 49.2-205.8l-10.3-51.9c-8.3-41.7 18.8-85 64.5-103zm461.6 21.1l-2.5-54.5c-0.7-15.8-8.3-30.9-20.9-41.9-16.5-14.3-40.1-21.1-64.8-18.7-4.3 0.4-8.7 1.1-13 2.1-40.1 9.2-69.2 41.8-67.7 75.9l7.8 161.4 1.2 6.3-1.4-0.1 1.9 41.7q1-0.4 2-0.7 6.3-2 13.1-3.8c37.7-9.8 81.9-11.6 131.4-5.3zm-225.5-57.3c-17.6-11.1-40.7-14.1-63.6-8.4-4.1 1.1-8.1 2.4-12 3.9-28.3 11.2-49.1 35.5-52.9 61.9-1 7.1-0.9 13.3 0.2 18.9l43.9 222.2c0.9 4.4 2.6 8.9 5.3 14.1 3.1 6 6.9 11.1 11.3 15.3 3 2.7 5.9 4.9 9 6.9 6.6 4.2 14.3 7.3 22.6 9.1-4.1-10.1-4.7-16.9-4.7-17-0.2-1.4 0-2.9 0.5-4.4 0.1-0.5 16.9-52.7 83.6-83.9l-6.6-146.5-11.1-55.8q-0.5-2.4-1.2-4.8c-3.8-12.9-12.2-23.8-24.3-31.5zm-155.7 62.2c-16.6-10.5-38.6-13.4-60.4-7.9q-5.9 1.5-11.4 3.6c-34.6 13.7-56.1 46.7-50.2 76.8l42.1 212.5c2.9 14.1 11.4 26.4 24.2 34.5 16.7 10.5 38.7 13.4 60.5 7.9 28.9-7.3 52.1-27.9 59.8-52.9-8.4-10.2-13.7-21.5-16.1-33.7l-44-222.1c-1.1-5.3-1.6-10.8-1.5-16.5-0.9-0.8-1.9-1.5-3-2.2zm391.5 161l3.3 0.6c4.5 0.8 9 1.6 13.6 2.5 17.9 3.7 36.3 8.2 54.7 13.4 13 3.7 25.7 8.1 37.9 13.1q6.9 2.7 13.4 5.7c14.8 6.8 28.2 14.4 40 22.7l17.8-225.7c0.6-6.9-0.1-13.8-2.1-20.5-2.6-8.7-7.1-16.6-13.4-23.7-14.6-16.2-37.2-25.9-62-26.5-4.3-0.2-8.8 0-13.2 0.4-40.9 4.2-73.8 33-76.5 66.9z"/>
			</g>
		</g>
	</g>
</svg>