<?xml version="1.0" encoding="utf-8"?>
<!-- Generator: Adobe Illustrator 16.0.0, SVG Export Plug-In . SVG Version: 6.00 Build 0)  -->
<!DOCTYPE svg PUBLIC "-//W3C//DTD SVG 1.1//EN" "http://www.w3.org/Graphics/SVG/1.1/DTD/svg11.dtd">
<svg version="1.1" id="Calque_1" xmlns="http://www.w3.org/2000/svg" xmlns:xlink="http://www.w3.org/1999/xlink" x="0px" y="0px"
	 width="432px" height="432px" viewBox="0 0 432 432" enable-background="new 0 0 432 432" xml:space="preserve">
<g>
	<path fill="#C29347" d="M78.574,270.107c11.207,3.139,24.951,5.176,30.34,16.974c0.604,1.319,1.41,0.473,1.584-0.587
		c1.037-6.307,5.629-10.913,11.246-13.527c30.953,3.249,61.953,7.005,93.037,8.631c11.25,0.59,22.5,1.094,33.752,1.602
		c9.633,8.174,19.418,13.403,32.174,15.071c15.785,2.063,34.105,4.712,49.531-0.358c1.416-0.465,3.715-3.273,1.6-4.486
		c-4.711-2.7-8.801-5.851-12.049-10.119c4.6-4.182,9.186-8.377,13.672-12.68c1.229-1.178,1.893-4.226-0.65-4.333
		c-4.588-0.194-9.172-0.523-13.758-0.894c-0.033-0.229-0.115-0.341-0.256-0.278c-0.16,0.069-0.32,0.146-0.48,0.218
		c-11.711-0.955-23.426-2.162-35.152-2.184c-13.148-0.021-22.688,9.495-33.994,14.679c-0.197,0.047-0.387,0.126-0.57,0.228
		c-10.094-0.455-20.184-0.906-30.27-1.416c-32.291-1.632-64.482-5.55-96.637-8.904c-4.793-1.909-8.129-6.608-7.115-11.937
		c0.566-1.587-0.115-5.051-1.174-4.402c-10.824,6.633-22.297,11.862-35.004,13.429C76.844,265.023,77.184,269.716,78.574,270.107z
		 M257.682,283.615c5.412,0.251,10.824,0.51,16.232,0.783c0.043,0.107,0.068,0.225,0.117,0.325c1.395,2.915,3.469,5.845,5.99,8.321
		C271.604,291.626,264.479,288.396,257.682,283.615z M298.781,268.713c3.932,0.276,7.865,0.608,11.797,0.957
		c-4.191,2.886-7.9,6.472-10.629,10.763c-0.051,0.08-0.102,0.182-0.154,0.295c-5.111-0.33-10.227-0.638-15.344-0.918
		c0.891-1.412,1.805-2.805,2.898-4.076c2.832-3.303,7.555-5.154,11.395-6.996C298.754,268.732,298.768,268.721,298.781,268.713z
		 M316.07,287.052c1.957,2.516,4.188,4.695,6.662,6.625c-7.518,0.758-15.242-1.18-19.32-7.563
		C307.633,286.404,311.854,286.712,316.07,287.052z M298.654,285.81c1.982,4.407,5.002,7.625,8.65,9.77
		c-5.066-0.213-10.148-0.744-15.166-1.249c-0.096-0.11-0.201-0.189-0.322-0.204c-5.746-0.625-11.115-4.734-14.709-9.57
		C284.291,284.929,291.475,285.347,298.654,285.81z M315.35,281.417c-0.129,0.114-0.252,0.247-0.369,0.385
		c-4.262-0.331-8.529-0.638-12.793-0.921c3.814-4.682,9.133-8.22,14.58-10.672c3.328,0.285,6.652,0.547,9.977,0.752
		C322.98,274.482,319.166,277.951,315.35,281.417z M283.865,268.101c2.586,0.003,5.176,0.086,7.76,0.201
		c-1.58,0.971-3.111,2.029-4.576,3.234c-2.617,2.157-4.328,5.203-6.115,8.074c-7.777-0.412-15.557-0.783-23.338-1.14
		C265.877,273.593,273.6,268.082,283.865,268.101z M112.273,257.583c0.023,4.334,1.377,8.735,4.193,11.866
		c-0.16,0.497-0.258,1.016-0.291,1.482c-3.305,2.691-5.734,6.247-6.949,10.42c-4.336-7.61-11.82-11.037-19.842-13.489
		C97.422,265.54,105.002,261.898,112.273,257.583z"/>
	<g>
		<g>
			<path d="M154.936,220.687c-0.377-0.094-0.742-0.025-1.066,0.202c-0.305,0.216-0.51,0.507-0.629,0.896
				c-1.801,9.059-3.158,15.641-4.035,19.558c-0.262,1.131-0.559,2.229-0.883,3.266l-0.014,0.041
				c-0.232-0.423-0.398-0.747-0.496-0.97c-0.641-1.373-1.195-2.888-1.646-4.502c-0.457-1.643-0.926-3.614-1.395-5.859
				c-0.479-2.314-0.842-3.93-1.109-4.938c-0.412-1.648-0.711-2.802-0.893-3.432c-0.27-0.863-0.527-1.563-0.764-2.068
				c-0.168-0.398-0.35-0.69-0.525-0.865c-0.385-0.503-0.852-0.758-1.379-0.758c-0.092,0-0.188,0.008-0.301,0.027
				c-0.336,0.076-0.617,0.264-0.807,0.522c-0.08,0.079-0.143,0.163-0.193,0.256c-0.041,0.085-0.072,0.179-0.092,0.276
				c-0.014,0.07-0.035,0.162-0.064,0.287l-0.135,0.667c-0.088,0.444-0.205,1.083-0.354,1.897c-0.09,0.39-0.178,0.839-0.27,1.348
				c-0.088,0.508-0.156,0.916-0.201,1.229c-0.049,0.332-0.068,0.531-0.068,0.531c-0.17,0.766-0.416,1.959-0.75,3.649l-0.754,3.983
				c-0.205,0.946-0.479,2.111-0.818,3.498c-0.332,1.361-0.666,2.642-0.996,3.806c-0.105,0.378-0.23,0.779-0.371,1.2l-2.209-6.588
				c-0.641-1.771-1.34-4.137-2.076-7.018l-0.932-4.218c-0.527-2.282-1.006-4.125-1.424-5.479c-0.115-0.37-0.34-0.652-0.676-0.839
				c-0.334-0.186-0.705-0.224-1.07-0.113c-0.375,0.11-0.658,0.338-0.844,0.674c-0.188,0.34-0.225,0.7-0.113,1.072
				c0.383,1.302,0.846,3.132,1.369,5.439c0.564,2.466,0.867,3.744,0.98,4.132c0.736,2.952,1.441,5.394,2.096,7.265
				c0.408,1.079,0.943,2.656,1.592,4.693l1.359,4.035v0.163l0.045,0.045l0.006,0.334c0.066,0.323,0.145,0.59,0.258,0.847
				c0.314,0.539,0.801,0.822,1.404,0.822c0.07,0,0.141-0.004,0.23-0.014c0.459-0.069,0.867-0.332,1.223-0.794
				c0.127-0.192,0.256-0.433,0.377-0.704c0.178-0.387,0.387-0.919,0.631-1.617c0.324-0.861,0.611-1.721,0.85-2.555
				c0.324-1.147,0.662-2.441,1.002-3.85c0.34-1.407,0.613-2.6,0.824-3.58c0.203-0.977,0.471-2.324,0.797-4.043l0.703-3.648
				c0.033-0.077,0.066-0.203,0.119-0.478c0.037-0.196,0.084-0.466,0.141-0.804c0.102,0.402,0.223,0.881,0.361,1.436
				c0.209,0.896,0.561,2.515,1.041,4.809c0.484,2.307,0.986,4.367,1.492,6.123c0.506,1.757,1.096,3.383,1.746,4.831
				c0.15,0.333,0.385,0.79,0.719,1.392c0.291,0.555,0.494,0.962,0.615,1.232l0.109,0.418c0.07,0.346,0.197,0.629,0.363,0.827
				c0.328,0.449,0.764,0.677,1.297,0.677c0.104,0,0.211-0.008,0.342-0.029c0.459-0.107,0.861-0.418,1.213-0.942
				c0.121-0.212,0.258-0.485,0.412-0.825c0.242-0.549,0.486-1.281,0.721-2.162c0.328-1.041,0.629-2.184,0.893-3.394
				c0.967-4.206,2.354-10.822,4.131-19.664c0.074-0.378-0.002-0.731-0.229-1.052C155.598,220.982,155.303,220.78,154.936,220.687z"
				/>
			<path d="M182.443,224.287c-2.465-2.313-5.607-3.533-9.348-3.626c-0.262-0.41-0.654-0.626-1.15-0.626
				c-1.791,0-3.49,0.461-5.055,1.372c-1.545,0.901-2.953,2.134-4.189,3.669c-2.387,3.079-3.783,6.654-4.143,10.627
				c-0.391,4.352,0.635,7.979,3.045,10.783c2.607,2.969,6.49,4.475,11.545,4.475c0.381,0,0.766-0.008,1.16-0.024
				c2.17-0.091,4.143-0.649,5.861-1.66s3.104-2.311,4.115-3.866c1.004-1.542,1.754-3.274,2.234-5.147
				c0.479-1.866,0.66-3.771,0.543-5.663C186.764,230.343,185.209,226.874,182.443,224.287z M183.398,241.109
				c-0.701,1.963-1.879,3.621-3.498,4.927c-1.613,1.298-3.533,2-5.705,2.085c-4.717,0.206-8.25-0.972-10.455-3.491
				c-1.889-2.174-2.686-5.085-2.369-8.653c0.289-3.442,1.492-6.522,3.578-9.16c1.307-1.693,2.801-2.863,4.447-3.48
				c0.238,0.182,0.518,0.273,0.834,0.273c0.047,0,0.096-0.001,0.152-0.007c4.207-0.519,7.617,0.409,10.146,2.764
				c2.236,2.066,3.488,4.896,3.717,8.407C184.393,236.997,184.107,239.128,183.398,241.109z"/>
			<path d="M203.99,245.226c-0.775-1.274-1.539-2.473-2.27-3.563c-0.674-0.998-1.336-1.912-1.975-2.726
				c0.535-0.399,1.031-0.826,1.48-1.278c1.186-1.305,1.949-2.786,2.268-4.4c0.32-1.613,0.115-3.457-0.611-5.491
				c-0.883-2.274-2.346-3.998-4.35-5.122c-0.27-0.15-0.551-0.295-0.838-0.43c-0.293-0.141-0.617-0.259-0.951-0.348l-0.869-0.262
				c-0.254-0.096-0.592-0.18-1.027-0.258c-0.41-0.072-0.688-0.124-0.836-0.154c-0.152-0.029-0.459-0.082-0.922-0.157
				c-0.625-0.099-0.754-0.138-0.836-0.157c-0.303-0.033-0.588,0.014-0.834,0.141c-0.35,0.05-0.643,0.217-0.873,0.5
				c-0.24,0.299-0.348,0.641-0.311,1.005c0.559,9.057,0.514,17.835-0.131,26.083c-0.041,0.379,0.074,0.725,0.336,1.027
				c0.258,0.295,0.578,0.463,0.949,0.5c0.385,0.035,0.727-0.077,1.027-0.338c0.289-0.254,0.461-0.572,0.5-0.957
				c0.17-2.278,0.303-4.65,0.393-7.053c1.418-0.286,2.77-0.736,4.023-1.341c0.646,0.769,1.297,1.64,1.938,2.592
				c0.688,1.022,1.438,2.199,2.236,3.496l1.967,3.171c0.217,0.293,0.514,0.486,0.877,0.577c0.107,0.027,0.219,0.042,0.326,0.042
				c0.262,0,0.51-0.082,0.736-0.243c0.313-0.219,0.516-0.516,0.605-0.88c0.096-0.381,0.031-0.743-0.195-1.084
				C205.379,247.464,204.76,246.492,203.99,245.226z M199.148,235.75c-1.393,1.498-3.334,2.545-5.775,3.111
				c0.102-4.887,0.029-9.92-0.213-14.973c1.813,0.336,3.162,0.75,4.018,1.231c1.41,0.79,2.455,2.022,3.109,3.663
				C201.344,231.502,200.971,233.782,199.148,235.75z"/>
			<path d="M228.973,244.109c-1.115-1.436-1.916-2.533-2.385-3.266l-2.361-3.52l-2.219-2.926c-0.871-1.174-1.717-2.223-2.518-3.121
				l9.842-8.367c0.293-0.258,0.463-0.576,0.498-0.949c0.037-0.378-0.076-0.723-0.338-1.025c-0.258-0.293-0.576-0.461-0.947-0.498
				c-0.373-0.037-0.729,0.076-1.023,0.336l-11.443,9.714c-0.51,0.421-1.209,1.044-2.076,1.852c-0.566,0.526-1.025,0.944-1.389,1.259
				c0.02-0.771,0.029-2.391,0.006-5.877c-0.031-4.125-0.045-6.307-0.045-6.544c0-0.376-0.141-0.707-0.422-0.986
				c-0.555-0.558-1.42-0.558-1.973,0c-0.279,0.277-0.42,0.61-0.42,0.988l0.045,6.745c0.025,4.354,0.008,5.889-0.014,6.398
				l-0.031,0.299c0,0.42-0.016,0.866-0.041,1.34c-0.182,0.369-0.199,0.743-0.051,1.113c-0.008,0.173-0.037,0.695-0.086,1.566
				c-0.041,0.703-0.09,1.602-0.09,1.882c0,0.206-0.016,0.743-0.043,1.608c-0.031,0.92-0.039,1.527-0.023,1.908
				s0.021,0.917,0.021,1.607c0,0.701,0.018,1.335,0.047,1.92c0.059,0.502,0.117,1.062,0.178,1.682
				c0.037,0.381,0.219,0.697,0.539,0.939c0.27,0.206,0.564,0.311,0.883,0.311c0.049,0,0.096-0.003,0.146-0.008
				c0.379-0.037,0.693-0.217,0.938-0.535c0.24-0.313,0.344-0.659,0.305-1.036c-0.059-0.53-0.107-1.06-0.154-1.589
				c-0.047-0.554-0.074-1.146-0.088-1.756c-0.014-0.648-0.021-1.179-0.021-1.592c0-0.411,0.016-0.998,0.045-1.763
				c0.029-0.774,0.043-1.312,0.043-1.595l0.09-1.814c0.047-0.73,0.076-1.232,0.084-1.502c0.535-0.372,1.084-0.798,1.639-1.271
				l1.906-1.771c0.576-0.528,1.012-0.918,1.322-1.184c0.77,0.865,1.588,1.859,2.434,2.963c0.924,1.202,1.629,2.168,2.098,2.869
				l2.352,3.506c0.449,0.656,1.287,1.795,2.492,3.384c1.094,1.447,1.896,2.548,2.398,3.282c0.217,0.292,0.51,0.486,0.873,0.577
				c0.111,0.028,0.221,0.042,0.328,0.042c0.262,0,0.508-0.082,0.736-0.242c0.309-0.219,0.514-0.516,0.607-0.884
				c0.094-0.381,0.027-0.743-0.197-1.079C230.932,246.695,230.115,245.585,228.973,244.109z"/>
			<path d="M262.105,221.1c-1.541-0.027-2.926-0.036-4.156-0.021c-1.225,0.015-2.6,0.015-4.119,0
				c-1.502-0.015-2.891-0.081-4.125-0.198c-0.379-0.038-0.723,0.076-1.025,0.339c-0.293,0.26-0.461,0.579-0.498,0.978v0.035
				c-0.059,0.165-0.09,0.332-0.09,0.498c0,0.137-0.107,4.002-0.301,11.018l-0.053,1.885c-0.148,5.27-0.104,9.669,0.133,13.083
				c0.039,0.373,0.207,0.693,0.5,0.948c0.262,0.23,0.561,0.346,0.885,0.346c0.047,0,0.094-0.002,0.139-0.006
				c0.375-0.037,0.693-0.205,0.951-0.5c0.262-0.301,0.375-0.646,0.34-1.016c-0.141-1.988-0.215-4.238-0.223-6.692
				c1.836-0.005,4.08-0.05,6.668-0.134c0.377,0,0.715-0.146,0.971-0.426c0.262-0.278,0.391-0.615,0.391-1.004
				c0-0.395-0.143-0.729-0.426-0.992c-0.279-0.26-0.621-0.392-1.033-0.392c-2.568,0.083-4.77,0.128-6.561,0.133
				c0.025-0.987,0.053-2.083,0.078-3.285c0.223-6.782,0.336-10.604,0.354-11.897c1.051,0.049,2.232,0.082,3.516,0.095
				c1.426,0.017,2.707,0.017,3.848,0c1.133-0.015,2.408-0.007,3.834,0.022c0.371,0,0.701-0.133,0.979-0.391
				c0.283-0.264,0.428-0.599,0.428-0.994c0-0.387-0.133-0.724-0.391-1.004C262.85,221.244,262.508,221.1,262.105,221.1z"/>
			<path d="M289.9,224.287c-2.461-2.313-5.605-3.533-9.346-3.626c-0.262-0.41-0.656-0.626-1.15-0.626
				c-1.791,0-3.49,0.461-5.053,1.372c-1.547,0.901-2.955,2.134-4.191,3.669c-2.391,3.08-3.785,6.655-4.143,10.627
				c-0.389,4.353,0.635,7.979,3.047,10.783c2.604,2.969,6.488,4.475,11.543,4.475c0.381,0,0.768-0.008,1.16-0.024
				c2.168-0.091,4.141-0.649,5.863-1.66c1.717-1.01,3.102-2.311,4.113-3.866c1.006-1.542,1.754-3.274,2.234-5.147
				c0.479-1.868,0.662-3.773,0.541-5.663C294.221,230.343,292.668,226.874,289.9,224.287z M290.857,241.109
				c-0.701,1.963-1.877,3.621-3.498,4.927c-1.613,1.298-3.535,2-5.705,2.085c-4.738,0.203-8.252-0.973-10.457-3.491
				c-1.889-2.175-2.684-5.085-2.367-8.653c0.289-3.443,1.492-6.523,3.576-9.16c1.307-1.694,2.801-2.865,4.449-3.48
				c0.238,0.182,0.52,0.273,0.834,0.273c0.045,0,0.094-0.001,0.15-0.007c4.207-0.519,7.621,0.411,10.148,2.764
				c2.238,2.067,3.488,4.896,3.719,8.407C291.852,236.997,291.564,239.128,290.857,241.109z"/>
			<path d="M311.447,245.226c-0.771-1.27-1.535-2.469-2.27-3.563c-0.668-0.994-1.33-1.91-1.973-2.726
				c0.535-0.398,1.029-0.825,1.48-1.276c1.186-1.307,1.949-2.788,2.27-4.402c0.318-1.615,0.115-3.459-0.613-5.491
				c-0.881-2.273-2.344-3.997-4.35-5.122c-0.271-0.15-0.551-0.295-0.838-0.43c-0.295-0.141-0.621-0.26-0.953-0.348l-0.867-0.262
				c-0.258-0.096-0.596-0.18-1.027-0.258c-0.412-0.072-0.689-0.124-0.84-0.154c-0.15-0.029-0.455-0.082-0.918-0.157
				c-0.627-0.099-0.756-0.138-0.836-0.157c-0.305-0.033-0.588,0.014-0.834,0.141c-0.352,0.05-0.643,0.218-0.871,0.5
				c-0.244,0.299-0.35,0.643-0.313,1.005c0.559,9.063,0.516,17.841-0.131,26.084c-0.037,0.379,0.074,0.724,0.336,1.025
				c0.256,0.296,0.576,0.464,0.951,0.501c0.381,0.033,0.723-0.076,1.023-0.338c0.295-0.256,0.463-0.574,0.504-0.957
				c0.172-2.324,0.305-4.695,0.391-7.053c1.418-0.286,2.77-0.736,4.025-1.341c0.646,0.771,1.299,1.642,1.936,2.592
				c0.689,1.028,1.441,2.204,2.234,3.496l1.969,3.171c0.219,0.293,0.514,0.486,0.877,0.577c0.109,0.027,0.219,0.042,0.326,0.042
				c0.264,0,0.51-0.082,0.738-0.243c0.311-0.22,0.516-0.517,0.605-0.88c0.094-0.379,0.029-0.742-0.199-1.084
				C312.834,247.461,312.217,246.488,311.447,245.226z M306.607,235.75c-1.395,1.498-3.336,2.545-5.777,3.111
				c0.104-4.883,0.033-9.916-0.213-14.973c1.816,0.336,3.164,0.75,4.02,1.231c1.41,0.79,2.455,2.022,3.107,3.663
				C308.801,231.503,308.43,233.783,306.607,235.75z"/>
			<path d="M330.676,221.798c0-0.382-0.143-0.709-0.426-0.973c-0.563-0.524-1.475-0.523-1.996,0.036
				c-0.26,0.276-0.393,0.622-0.391,1.033c0.086,2.913,0.139,7.396,0.154,13.325c0.014,5.904,0.068,10.453,0.156,13.51
				c0,0.382,0.145,0.709,0.428,0.972c0.277,0.259,0.613,0.392,1.002,0.392c0.395,0,0.729-0.145,0.992-0.428
				c0.26-0.277,0.393-0.623,0.393-1.033c-0.09-2.992-0.141-7.526-0.156-13.48C330.818,229.211,330.766,224.715,330.676,221.798z"/>
			<path d="M355.414,221.699c-0.279-0.279-0.613-0.422-0.986-0.422c-4.576,0-12.197,0.107-12.658,0.134
				c-0.656,0.03-1.537,0.09-2.652,0.179c-1.105,0.088-1.924,0.148-2.455,0.177c-0.523,0.029-1.336,0.015-2.393-0.044
				c-0.373-0.038-0.721,0.068-1.016,0.311c-0.303,0.242-0.473,0.564-0.51,0.958s0.066,0.742,0.307,1.035
				c0.244,0.302,0.576,0.474,0.996,0.511c1.154,0.06,2.064,0.075,2.691,0.043c0.621-0.028,1.514-0.088,2.67-0.177
				c1.152-0.089,1.979-0.147,2.484-0.179c0.313-0.021,0.641-0.035,0.975-0.041c0.055,2.603,0.09,6.656,0.102,12.058
				c0.016,5.63,0.068,10.015,0.156,13.022c0,0.381,0.143,0.708,0.426,0.971c0.279,0.26,0.617,0.392,1.006,0.392
				c0.391,0,0.725-0.144,0.994-0.429c0.26-0.277,0.391-0.622,0.389-1.033c-0.088-2.979-0.141-7.35-0.154-12.991
				c-0.014-5.448-0.051-9.496-0.104-12.041c1.471-0.025,4.477-0.039,8.746-0.039c0.375,0,0.707-0.142,0.986-0.42
				c0.279-0.279,0.42-0.611,0.42-0.987C355.834,222.31,355.693,221.977,355.414,221.699z"/>
		</g>
		<g>
			<path d="M175.037,187.475c-0.955,0.191-1.814,0.765-2.58,1.529c-2.102,2.294-3.344,5.161-4.492,8.22
				c-0.859,2.484-3.344,8.219-4.777,7.55c-0.766-0.286-1.146-1.529-1.338-3.154c-0.191-3.822,1.146-9.939,1.529-11.183
				c0.477-1.91,1.336-4.014,2.006-5.829c0.861-1.816-2.389-2.677-3.727-2.103c-4.016,1.625-7.359,17.872-9.271,17.107
				c-1.338-0.668-0.764-8.793-0.287-10.895c0.67-2.295-3.057-3.059-4.014-1.912c-0.182,0.213-0.344,0.477-0.482,0.773
				c-4.787,1.678-5.439,3.146-9.932,3.24c3.154-9.176-1.146-20.645-11.279-18.828c-5.064,0.956-8.41,6.595-4.301,12.711
				c0.699,1.137,1.648,2.186,2.754,3.09c-3.723,2.409-8.127,4.14-12.977,5.513c1.912-18.924,1.146-38.039,6.115-49.795
				c1.053-2.39-3.344-3.058-4.586-1.242c-1.91,2.963-3.25,6.69-4.205,10.991c-4.779,15.77-12.043,43.869-19.879,38.707
				c-7.072-4.587,10.32-52.947-9.463-60.689c-1.338-0.479-1.912,0.765-0.572,1.242c17.107,5.544-5.83,54.956,8.887,60.881
				c9.176,3.729,14.91-15.674,19.594-31.443c-1.146,9.748-1.338,21.313-2.197,32.687c-19.307,4.683-42.148,6.595-50.082,28.481
				c-2.963,8.027-1.242,15.674,3.059,20.549c8.602,9.748,28.289,10.608,41.861-9.94c6.977-10.704,9.939-24.944,11.373-39.376
				c4.742-1.253,9.057-2.85,12.883-5.164c-1.422,4.149,1.113,9.178,5.656,9.178c3.631,0,5.83-3.536,6.881-6.213
				c5.686-0.36,5.412-1.574,9.949-3.156c-0.865,4.118,0.705,11.289,4.768,11.758c3.439,0.383,4.682-9.365,6.785-12.232
				c-0.764,2.293-1.053,4.301-1.148,6.402c-0.094,1.721,0.193,4.492,1.148,6.882c0.764,1.911,1.912,3.536,3.727,4.11
				c3.633,1.146,5.641-5.448,6.404-7.264c1.146-2.867,2.197-5.83,4.014-8.125c0.67-0.859,1.434-1.434,2.295-1.814
				C175.803,188.623,175.707,187.379,175.037,187.475z M95.908,232.873c-11.852,19.594-28.48,19.115-36.318,10.035
				c-3.822-4.492-5.447-11.564-2.771-19.019c7.742-21.696,29.629-23.702,48.648-28.194
				C104.318,209.266,102.025,222.646,95.908,232.873z M130.408,197.033c-1.529-0.383-1.529-3.919-1.244-6.404
				c2.391,0.86,4.779,1.338,6.691,1.434C135.188,193.783,132.797,197.702,130.408,197.033z M136.334,190.82
				c-1.912-0.096-4.303-0.287-6.691-1.434c0.191-0.764,0.574-1.338,1.053-1.815c0.381-0.478,0.955-0.765,1.527-0.765
				c0.287,0,0.479-0.191,0.479-0.479c0-0.382-0.191-0.668-0.479-0.764c-1.336-0.383-2.58-0.383-3.631-0.096
				c-1.051,0.286-2.008,0.859-2.771,1.625c-0.955-0.86-2.104-1.816-2.676-2.963c-2.963-5.448-0.098-9.749,4.109-10.514
				C137.48,172.279,138.723,183.843,136.334,190.82z"/>
			<path d="M319.057,187.475c-0.955,0.191-1.814,0.765-2.58,1.529c-3.822,4.205-4.492,12.711-6.309,17.872
				c-0.764,2.294-1.719,4.396-2.674,4.492c-2.295,0.287-3.633-7.551-3.824-9.176c-0.574-8.027-0.096-16.247,0.955-24.371
				c0.479-3.822,1.434-8.41,2.58-13.094h7.646c1.625,0,1.34-1.912-0.287-1.912h-6.881c1.242-4.682,2.676-9.27,4.109-12.998
				c0.861-2.293-2.771-3.439-4.109-1.433c-2.293,3.44-4.396,8.602-6.021,14.431h-5.447c-1.625,0-1.338,1.912,0.191,1.912h4.684
				c-1.895,7.247-3.141,15.441-3.369,22.957c-0.682,0.277-1.311,0.744-1.887,1.319c-3.344,3.632-4.969,8.697-6.785,12.711
				c-0.191,0.478-1.434,2.963-2.102,2.772c-1.816-0.574-1.148-8.697-0.479-13.668c0.287-2.389,1.242-7.072,1.434-8.028
				c0.383-3.249-3.537-3.44-4.205-3.249c-5.639,1.434-10.227,13.38-10.801,17.299c-0.764-4.109,0.957-8.793,1.242-10.8
				c0.191-2.294-3.822-2.581-4.777-1.529c-0.471,0.617-0.85,1.733-1.074,3.087c-0.793,0.255-1.52,0.752-2.174,1.405
				c-3.346,3.632-5.256,7.55-7.072,11.563c-0.191,0.479-1.434,2.964-2.102,2.772c-3.154-1.052,0.191-13.571,1.721-17.107
				c0.859-1.816-3.441-3.537-4.492-2.294c-0.957,1.051-1.529,2.389-2.008,3.822c-1.146,1.338-3.727,6.021-5.162,6.117
				c-1.049,0.096-0.955-2.198-0.381-3.728c0.477-1.242,1.146-2.58,2.293-2.962c0.574-0.287,1.529,0.095,2.199,0.478
				c0.955,0.382,1.338-0.765,0.572-1.243c-3.752-2.039-8.188-1.562-9.59,1.826c-0.48,0.453-0.879,1.031-1.303,1.615
				c-3.344,4.97-7.836,14.432-13.762,5.447c2.389-5.065,5.83-16.248,2.867-20.931c-0.955-1.721-2.58-2.007-3.918-1.052
				c-6.5,4.588-4.396,15.675-0.479,21.791c-1.912,3.919-8.123,14.91-10.703,13.189c-1.627-1.146-0.098-9.08,0.285-11.564
				c0.67-3.632,2.008-10.035,1.338-12.711c-0.572-2.199-4.969-2.771-6.211-1.529c-1.721,1.911-2.965,5.065-4.016,7.455
				c-0.572,1.434-3.535,9.079-4.586,8.793c-1.244-0.287-0.766-6.213-0.574-6.883c0.191-0.955,0.383-2.006,0.764-3.058
				c1.244-3.632-3.631-3.153-4.205-2.485c-0.764,0.766-1.146,2.104-1.338,3.537c-0.383,2.58,0.191,7.072,2.391,9.271
				c0.668,0.765,1.625,1.242,2.867,1.242c2.389-0.19,4.49-6.499,5.352-8.507c1.051-2.484,2.104-5.352,3.631-7.55
				c-0.668,3.154-1.527,7.55-1.719,11.852c-0.096,4.109,0.859,11.087,5.064,13.188c5.066,2.485,10.705-9.174,12.615-12.902
				c6.787,8.793,12.043-0.764,15.006-5.543c0.064-0.1,0.127-0.197,0.189-0.294c0.07,2.569,1.787,5.251,5.16,4.978
				c1.625-0.096,3.344-2.581,4.588-4.205c-0.287,3.918-0.098,10.417,3.822,12.807c0.764,0.478,1.529,0.669,2.295,0.478
				c1.051-0.19,1.91-1.529,2.674-3.345c1.721-4.109,3.729-7.455,6.309-10.801c0.488-0.627,1.029-1.098,1.619-1.457
				c-0.213,2.835,0.211,6.209,1.723,8.34c1.051,1.434,2.008,2.006,2.773,2.006c0.764,0,1.146-0.382,1.336-1.434
				c1.148-5.065,5.354-14.145,8.795-16.152c-0.766,2.485-1.434,4.588-1.723,8.029c-0.477,4.683-0.094,11.373,3.059,14.527
				c0.955,0.955,2.199,1.625,3.441,1.434c1.051-0.096,1.912-1.529,2.676-3.346c1.721-4.109,3.441-8.602,6.021-11.947
				c0.449-0.576,0.945-1.016,1.48-1.363c-0.063,5.199,0.381,10.019,1.48,13.884c1.338,4.97,4.396,10.227,8.123,9.94
				c2.008-0.191,3.059-2.199,3.92-4.684c1.91-5.257,2.389-13.476,5.639-17.777c0.668-0.859,1.434-1.434,2.293-1.814
				C319.822,188.623,319.727,187.379,319.057,187.475z M226.072,193.878c-1.816-3.441-2.486-7.741-2.391-10.704
				c0.191-3.823,1.146-7.359,2.963-8.697c0.861-0.669,1.721-0.573,2.295,0.478C231.424,179.351,227.984,189.482,226.072,193.878z"/>
			<path d="M345.623,179.064c3.535,1.816,5.16-3.44,2.484-4.778C344.857,172.661,342.373,177.344,345.623,179.064z"/>
			<path d="M377.447,187.475c-0.955,0.191-1.816,0.765-2.58,1.529c-3.822,4.205-4.492,12.711-6.309,17.872
				c-0.764,2.294-1.719,4.396-2.676,4.492c-2.293,0.287-3.633-7.551-3.822-9.176c-0.574-8.027-0.096-16.247,0.955-24.371
				c0.479-3.822,1.434-8.41,2.58-13.094h7.646c1.625,0,1.338-1.912-0.287-1.912h-6.881c1.242-4.682,2.676-9.27,4.109-12.998
				c0.861-2.293-2.771-3.439-4.109-1.433c-2.293,3.44-4.396,8.602-6.021,14.431h-5.447c-1.625,0-1.338,1.912,0.191,1.912h4.682
				c-1.893,7.247-3.141,15.441-3.367,22.957c-0.684,0.277-1.313,0.744-1.887,1.319c-3.346,3.632-4.396,7.55-6.213,11.563
				c-0.096,0.479-1.434,2.964-2.102,2.772c-2.104-0.669-1.625-6.116-0.576-11.087c0.479-2.389,1.053-4.97,1.627-6.116
				c0.764-1.816-3.537-3.536-4.588-2.294c-1.625,1.911-2.389,5.256-2.676,7.551c-0.383,3.918,0.764,10.608,4.49,12.807
				c0.766,0.478,1.531,0.669,2.295,0.478c1.051-0.19,1.912-1.529,2.676-3.345c1.721-4.109,2.867-7.455,5.449-10.801
				c0.449-0.576,0.943-1.016,1.479-1.363c-0.063,5.199,0.383,10.019,1.482,13.884c1.338,4.97,4.396,10.227,8.123,9.94
				c2.008-0.191,3.059-2.199,3.918-4.684c1.912-5.257,2.391-13.476,5.641-17.777c0.668-0.859,1.432-1.434,2.293-1.814
				C378.213,188.623,378.117,187.379,377.447,187.475z"/>
		</g>
	</g>
</g>
</svg>
