<svg version="1.2" xmlns="http://www.w3.org/2000/svg" viewBox="0 0 1080 1080" width="1080" height="1080">
	<title>New Project</title>
	<style>
		.s0 { fill: #ffffff } 
		.s1 { fill: #edac6b } 
		.s2 { fill: #16375e } 
	</style>
	<g id="&lt;Group&gt;">
		<g id="&lt;Group&gt;">
			<g id="&lt;Group&gt;">
				<path id="&lt;Path&gt;" class="s0" d="m883 905.5c50.6-47.1 78.5-127.5 74.7-215.1-0.9-18.4-1.6-34.8-2.3-49.8l40.4-71.8c12.6-22.3 15.7-48.1 8.9-72.8-6.9-24.6-23-45.1-45.3-57.8-12.8-7.1-26.7-11.2-40.9-12.1-0.2-8.8-1.5-17.6-3.9-26.3-7.6-27.1-25.2-49.6-49.8-63.5-15.6-8.8-33.3-13.2-51-13.3l47.8-120.6c30.7-77.3 10.7-161.4-45.4-191.5-24.2-12.8-51.2-14.4-78.2-4.4-36.6 13.4-69 48.1-86.8 92.9l-0.2 0.7-79.9 235.7-12.9-171.6c-6.4-82.9-61.2-149.7-124.8-152.1-26.9-0.9-52.6 9.8-72.2 30.3-26.8 27.9-40.7 72.6-37.3 119.6l2.4 339.2c0 2.1-0.7 8-2.3 18.1-59.3-50.3-142.6-100.3-208.1-58.6-38.1 24.2-57.7 50.8-59.7 81.2-1.9 27.4 11.5 48.4 20.3 62.3 1.7 2.6 4.2 6.5 4.9 8.1 7.6 16.8 31.1 40.4 75.6 84.4 19 18.8 54.1 53.5 60.7 63.4 0.8 2.2 1.8 5.8 3 9.9 11.3 38 34.9 117.1 100 149.6 21.5 10.7 44.8 15 69.7 13l-0.2 108.9c-0.1 14.7 9.2 28.1 22.9 33.3 4.2 1.6 8.5 2.3 12.5 2.3 9.5 0 18.4-3.6 25.2-10.4q0.2-0.2 0.4-0.4l312.1 2.5c6.8 7.2 16.6 11.5 27.3 11.2 19.6-0.9 34.8-17.5 33.9-37.1l-4.5-102.3c22.4-5.6 44.1-17.5 63-35.1z"/>
				<path id="&lt;Path&gt;" class="s1" d="m934.2 690.1c-1-22.6-1.9-42.3-2.8-59.9l45.5-80.7c16.4-29 6.1-65.8-22.9-82.2-29-16.3-65.8-6.1-82.1 22.9l-7.9 14-2.4-0.4 24.4-43.3c18.9-33.5 7.1-76.1-26.5-95.1-33.7-18.9-76.2-7.1-95.2 26.5l-15.8 28.1 92.1-232.6c23.8-59.8 10.7-125.7-29.1-147-39.9-21.2-91.3 9.9-115.1 69.8l-135.7 400.5-25.9-345.6c-4.9-64.2-45.5-117.7-90.6-119.4-45.2-1.5-77.7 49.1-72.8 113.3l2.4 338.7c1.1 13.4-14.9 90.2-14.9 90.2 0 0-136.2-147.3-211.9-99.2-75.7 48.2-31.7 84-21.2 107.1 10.4 23.1 125.7 124.2 136.1 147.4 9.7 21.3 38.8 194 176.2 143.2l-0.4 153.3 363.4 2.9-6-136.5c73.5 8.6 144.8-86.5 139.1-216z"/>
				<path id="&lt;Compound Path&gt;" fill-rule="evenodd" class="s2" d="m241.5 748.8c-4.5-10-38.7-43.8-66.1-70.9-34.4-34-64.1-63.3-70.1-76.4-1.4-3.2-3.9-7.2-6.6-11.4-7.8-12.3-17.6-27.6-16.3-46.4 1.5-21.5 17-41.4 47.6-60.8 67.8-43.2 173.1 50.2 211.3 88 6.2-31.4 11.8-63.8 11.3-70.7l-2.4-339.3c-3.1-39.9 8.1-77.5 30-100.3 14.6-15.2 32.6-22.9 52.3-22.2 49.6 1.8 94.2 59.2 99.5 127.8l22.5 300.5 121.2-357.6c15-38 41.7-67 71.4-77.9 19.7-7.3 39.3-6.3 56.7 3 43.8 23.4 58.7 94.5 33.4 158.5l-67.1 169.1c24.4-15.6 56.2-17 81.9-2.6 18.3 10.4 31.6 27.3 37.2 47.7 4.7 16.9 3.8 34.4-2.6 50.4 19.4-7.8 41.5-6.5 59.9 3.9 16.2 9.1 27.8 24 32.8 41.9 5 17.9 2.7 36.6-6.4 52.8l-44.2 78.4c0.8 16.9 1.7 35.8 2.7 57.2 3.5 80.1-21.3 152.9-66.4 194.7-21.7 20.2-47.2 31.3-72.3 31.5l5.5 126.4c0.3 5.1-3.7 9.4-8.7 9.6-5.1 0.2-9.4-3.7-9.7-8.8l-6-136.5c-0.1-2.7 1-5.3 3-7.2 2-1.8 4.6-2.7 7.3-2.4 23.5 2.8 47.1-6.2 68.4-26 40.5-37.7 63.7-106.9 60.5-180.5q-0.7-14.7-1.3-27.9l-25.4 45.1c-16.7 29.6-53.3 42.9-85.1 30.9-3.3-1.3-6.6-2.8-9.7-4.6-23.1-13-36.5-38-35.1-64.1-24.5 16.1-56.7 17.6-82.4 3-18.4-10.3-31.7-27.2-37.3-47.6-5.7-20.3-3.1-41.7 7.3-60.1l84.2-149.3 91.8-231.8c22.1-55.6 10.9-116.3-24.9-135.5-12.6-6.7-27-7.3-41.7-2-24.8 9.2-47.4 34.2-60.4 67.1l-135.6 400c-1.4 4.1-5.5 6.7-9.9 6.2-4.4-0.6-7.7-4.1-8-8.5l-25.9-345.6c-4.5-59.5-41.3-109.3-81.8-110.8-14.2-0.5-27.5 5.2-38.3 16.6-18.3 19.1-27.6 51.5-24.9 86.7l2.4 339.4c0.8 10.1-6.6 50.1-12 76.9 152-41.9 257 125.1 258 126.8 1.3 2.1 1.7 4.6 1.1 7-0.6 2.4-2 4.4-4.1 5.7-4.2 2.6-10.2 1.1-12.7-3.1-1-1.6-104.9-167.1-251-114.4l-0.2 0.1q-0.1 0-0.1 0l-1.9 0.3q-1.5 0.3-3 0l-1.2-0.3c-1.4-0.6-2.2-1-3-1.7l-0.8-0.7c-1.3-1.4-132.1-141-200.2-97.7-25.3 16.1-38.1 31.3-39.1 46.6-0.9 12.7 6.7 24.6 13.4 35.1 2.9 4.6 5.9 9.3 7.9 13.8 4.5 10 38.7 43.8 66.2 70.9 34.4 34 64.1 63.3 70 76.4 1.5 3.3 3.1 8.7 5.3 16 9.5 32 29.3 98.5 77.1 122.4 23.2 11.6 50.8 11.6 82.1 0 2.9-1.1 6-0.7 8.5 1.1 2.5 1.7 4 4.6 3.9 7.6l-0.3 153.3c0 2.4-1 4.8-2.7 6.5-1.8 1.7-4.1 2.7-6.5 2.7-1.1 0-2.2-0.2-3.3-0.6-3.5-1.4-5.9-4.8-5.9-8.6l0.3-140.6c-31.3 9.1-59.6 7.4-84.3-4.9-54.9-27.4-76.3-99.1-86.6-133.6-1.8-6.2-3.4-11.5-4.4-13.7zm418.5-172.7c-8 14.1-9.9 30.5-5.6 46.1 4.3 15.6 14.5 28.5 28.6 36.5 2.7 1.5 5.6 2.9 8.5 3.9 27.7 10.5 59.5-1.1 74.1-26.9l100.3-177.8c8-14.1 9.9-30.5 5.6-46.1-4.4-15.6-14.5-28.6-28.6-36.5-2.6-1.5-5.4-2.8-8.3-3.9-27.8-10.5-59.7 1.1-74.3 26.9zm210.2 124.3l86.7-153.5c6.7-11.9 8.4-25.7 4.7-38.9-3.7-13.1-12.2-24-24.1-30.8q-3.5-1.9-7-3.2c-23.4-8.9-50.4 0.9-62.6 22.6l-86.7 153.6c-13.8 24.5-5.1 55.8 19.4 69.6 2.3 1.3 4.7 2.4 7.2 3.3 23.3 8.9 50.2-0.9 62.4-22.7z"/>
			</g>
		</g>
	</g>
</svg>