<?xml version="1.0" encoding="utf-8"?>
<!-- Generator: Adobe Illustrator 16.0.0, SVG Export Plug-In . SVG Version: 6.00 Build 0)  -->
<!DOCTYPE svg PUBLIC "-//W3C//DTD SVG 1.1//EN" "http://www.w3.org/Graphics/SVG/1.1/DTD/svg11.dtd">
<svg version="1.1" id="Calque_1" xmlns="http://www.w3.org/2000/svg" xmlns:xlink="http://www.w3.org/1999/xlink" x="0px" y="0px"
	 width="432px" height="432px" viewBox="0 0 432 432" enable-background="new 0 0 432 432" xml:space="preserve">
<g>
	<g>
		<g>
			<path d="M164.365,60.05c-0.5-0.582-0.916-1.166-1.5-1.498c-1.082-0.584-2.166-1.083-3.331-1.499
				c-2.083-0.334-3.915,0.499-5.663,1.082c-1.666,0.917-3.332,1.999-4.998,3.165c-0.666,0.416-1.082,1-1.582,1.333
				c-1.416,1.166-2.748,2.581-3.914,4.081c-2.499,3.331-4.581,7.08-6.33,11.075c-0.416,1.084-0.916,2.25-1.332,3.499
				c-0.084,0.167-0.084,0.417-0.416,0.167c-0.168-0.084-0.25-0.167-0.25-0.333c-0.084-0.417-0.084-0.916-0.251-1.5
				c-0.083-1.164-0.083-2.331-0.333-3.747c0-1.749-0.166-3.332-0.332-4.998c-0.084-0.833-0.084-1.916-0.084-2.748
				c-0.084-1.5-0.084-3.333-0.084-4.998c-0.166-0.75-0.249-1.333-0.499-1.915c-0.417-1.333-1.167-2.248-2.581-2.581
				c-0.501-0.251-1.334-0.251-2.167-0.251c-0.831,0.167-3.331,1-3.997,1.332c-0.666,0.417-1,1.167-1,1.999l0.334,21.988
				c0,1.082-0.084,1.666,1.332,14.658c0,0.582,0,0.999,0.083,1.332c1.167,4.998,1.583,9.744,3.499,11.243
				c0.582,0.417,1.166,0.666,1.665,1c0.5,0.584,1.333,0.749,1.999,0.749c1.083-0.333,1.998-0.749,3.082-0.915
				c1.832-0.834,3.997-1.667,5.996-2.333c2.248-1.165,4.58-2.415,6.579-4.081c1-0.582,1.916-1.167,2.665-2.165
				c1.25-0.916,2.166-2.166,3.165-3.331c0.999-1.083,1.833-2.249,2.749-3.331c1.582-1.583,3.082-3.249,4.247-5.331
				c0.499-1,1.333-1.998,1.749-3.082c0.5-0.998,0.916-1.998,1.5-3.164c0.416-1.166,1.165-2.332,1.415-3.665
				c0.917-1.749,1.165-3.832,1.499-5.746c0.333-2.083,0.333-3.999,0.416-5.914c0-2.5-0.083-4.832-1.582-6.996
				C165.947,61.55,165.03,60.801,164.365,60.05z M156.453,71.378c-0.251,2.082-0.834,4.165-1.25,6.329
				c-0.084,0.751-0.333,1.416-0.5,1.915c-0.166,0.833-0.5,1.5-0.749,2.25c-0.167,1.332-3.499,9.078-3.831,9.494
				c-1.25,2.499-5.664,9.995-10.744,12.742c-0.583,0.25-1.166,0.499-1.998,0.916c-0.084,0.167-0.417-0.083-0.417-0.417
				c-0.251-0.249-0.251-0.499-0.333-0.915c-0.084-2.166-0.25-4.248-0.334-6.414c0-1.498,0.334-2.914,0.667-4.413
				c0.999-3.997,2.332-8.079,3.747-12.16c0.5-1.582,1-3.249,1.666-4.747c2.499-4.581,5.33-9.079,9.578-12.077
				c0.749-0.417,1.582-0.916,2.498-1.582c0.084-0.25,0.666-0.334,1-0.334c0.166-0.167,0.416-0.167,0.5,0
				c0.416,0.667,0.583,1.166,0.749,1.916C156.869,66.297,156.869,68.795,156.453,71.378z"/>
			<path d="M207.086,71.294c-0.084-0.999-0.166-1.915-0.416-2.915c-1.25-5.58-11.244-15.074-20.738-10.91
				c-2.748,1.167-4.664,2.415-6.58,4.664c-1.082,1.25-1.915,2.664-2.582,4.164c-1.166,2.665-1.998,5.331-2.748,8.163
				c-0.666,2.331-0.999,4.663-1.332,9.743c0.083,2.165,0.249,4.247,0.666,6.33c0.75,3.498,1.832,6.745,3.414,9.828
				c1.416,2.749,3.248,4.997,5.581,7.079c2.165,1.749,4.747,3.082,7.495,4.164c1.166,0.667,2.416,0.667,3.831,0.418
				c1.665-0.418,2.999-1.167,4.164-2.166c0.75-0.832,1.417-1.665,2.083-2.499c1.416-2.082,2.332-4.164,3.248-6.413
				c0.5-1.166,0.998-2.582,1.416-3.915c0.499-1.166,0.916-2.248,1.248-3.332c0.417-1.415,0.75-2.831,0.834-4.247
				c0.166-1.498,0.25-2.914,0.416-4.33l0.416-7.58c0-1.416-0.166-2.748-0.166-4.329C207.253,72.626,207.253,71.961,207.086,71.294z
				 M201.672,87.535c-2.332,12.409-7.412,28.15-14.74,9.911c-1.5-3.915-1.75-8.745-1.75-9.994c0-3.332,0.084-6.664,0.75-9.996
				c0-0.582,0.083-1.081,0.083-1.664c0.499-3.415,1.499-6.914,2.832-10.328c0.749-1.499,1.665-2.998,2.748-4.415
				c0.5-0.582,1.083-1,1.915-1.249c2.416-0.5,9.578,4.081,9.578,12.577v1.166C203.088,74.043,203.838,76.541,201.672,87.535z"/>
			<path d="M253.722,56.719c-0.249-0.166-0.499-0.333-0.749-0.416c-0.75-0.5-1.416-0.833-2.332-0.916
				c-1.082-0.083-2.249-0.083-3.498,0.083c-1.333,0.333-2.665,0.749-4.081,1.167c-1.249,0.499-2.165,1.415-2.165,3.08
				c-0.167,0.25,0,0.501-0.084,0.751l-0.999,7.494c-0.083,1-0.167,2-0.333,3.083c-0.334,1.165-0.416,2.499-0.583,3.748v0.583
				c-0.167,1.25-0.167,2.332-0.333,3.498l0.249,10.411c0,0.083-0.167,0.249-0.249,0.416c-0.5-0.499-1.083-1.166-1.332-1.666
				l-1.584-2.331c-2.332-3.415-4.164-6.83-5.996-10.578c-0.999-1.499-4.83-12.327-5.33-13.41c-0.333-0.499-0.75-0.749-1.166-0.749
				c-0.5,0-0.999,0.083-1.499-0.083c-0.583-0.166-1.249,0.083-1.833-0.083c-0.915-0.083-1.832,0-2.581,0.333
				c-0.667,0-1.332,0.332-1.915,0.499c-1.084,0.083-1.666,0.917-1.334,7.664c0,0.332-0.166,0.665-0.166,1.247
				c0.166,1.083-1,21.404-1,23.07l0.167,0.667l-0.499,10.743l0.582,4.497c0.25,0.334-0.832,5.58,3.748,5.58
				c0.834,0.334,1.75,0.084,2.498,0.167c1.168-0.167,2-0.583,2.75-1.25c0.748-0.333,1.248-1.083,1.498-1.498
				c0.584-0.584,1.25-1.167,1.25-2.166c0-1.25,0.082-2.334,0.25-3.665c-0.168-2.582-0.417-5.079-0.417-7.746
				c-0.083-2.414,0.083-4.83,0.083-7.246c0.084-2.248,0.334-4.414,0.417-6.745l0.083-1.582c0-0.251,0.25-0.501,0.416-0.501
				c0.334,0.084,0.5,0.417,0.5,0.583c0.75,1.583,1.749,2.915,2.582,4.581c0.833,2.249,2.082,4.498,3.082,6.83
				c0.666,0.916,1.249,2.082,1.999,3.248c0.167,0.083,0.333,0.25,0.415,0.666c0.334,0.333,0.584,0.751,0.834,1.166
				c0.999,2.081,2.082,3.748,3.082,5.581c0.998,1.082,1.332,1.415,2.581,1.998c2.165,0.832,3.915,0.667,5.83-0.249
				c1.083-0.584,1.415-1.5,1.666-2.499c0.083-0.417,0.249-0.917,0.083-1.415c-0.25-0.834,0-1.667,0.083-2.417
				c0.083-0.75,0.167-1.333,0.167-2c0.25-1.749,0.25-3.747,0.25-5.58c0.25-1.249,0.332-2.414,0.499-3.581
				c0.251-2.165,0.333-4.496,0.583-6.663c0.166-1.165,0.333-2.248,0.25-3.33c0.25-1.917,0.583-3.75,0.916-5.747
				c0-0.75,0.084-1.583,0.25-2.25c-0.084-0.666,0.084-1.25,0.084-1.915c0.416-1.749,0.5-3.498,0.748-5.331
				c0.251-0.832,0.5-1.833,0.75-2.832c0.25-1.083,0.584-2.498,1-3.581c0-0.083,0.084-0.333,0-0.415
				C253.973,57.386,253.889,57.053,253.722,56.719z"/>
			<path d="M264.525,56.606l-2.164-0.416c-0.668,0.333-1.084,0.833-1.167,1.5l-0.749,4.33c-0.168,1.083-0.25,2.082-0.5,3.165
				c-0.166,0.832,0.166,1.416,0.416,1.999c0.25,0.416,0.666,0.5,1,0.5c0.749,0.082,1,0,1.332-0.584
				c0.916-1.582,1.5-3.165,1.916-4.914c0.334-1.582,0.416-3.331,0.583-5.08C265.192,56.773,264.943,56.606,264.525,56.606z"/>
			<path d="M311.748,55.387c-0.25-0.417-0.75-0.667-1.167-1c-0.249-0.25-0.583-0.498-0.999-0.333
				c-1.416,0.083-2.665,0.083-4.165,0.25c-3.497,0.5-7.079,1.25-10.66,2.082c-1.415,0.251-2.998,0.501-4.581,0.667
				c-4.83,1.165-16.406,3.081-19.404,4.247c-0.25,0.166-0.667,0.333-0.584,0.833l0.917,0.999c0.333,0.251,0.75,0.251,1.165,0.333
				c0.417,0.083,0.917,0.083,1.334,0.083c0.416,0,0.582,0,0.998-0.083c0.75-0.082,1.666-0.166,2.416-0.166
				c0.416-0.084,0.75,0,1.166,0c0,0.5,0.167,0.667,0.167,1.083c-0.25,1.416-0.334,2.832-0.501,4.247
				c-0.082,0.916-0.332,1.749-0.416,2.665c-0.166,1.583-0.25,3.082-0.25,4.665c-0.332,2.915-0.416,5.831-0.5,8.661
				c-0.248,2.5-0.332,5.081-0.498,7.412c0,1.417-0.084,2.833-0.084,4.249l-0.584,10.244c-0.166,0.333-0.166,0.75,0,0.916
				c0.168,0.667,0.416,1.416,0.668,1.749c0.166,0.333,0.498,0.417,0.666,0.5c0.499,0.167,0.916,0.334,1.332,0.334
				c1.998,0.75,3.998,1.415,5.912,2.248c1.25,0.416,2.416,0.416,3.666,0.083c0.999-0.332,1.498-0.916,1.748-1.749
				c0.251-0.916,0.417-1.914,0.251-2.748c-0.167-1.083-0.167-2.082,0-3.081c0-0.5,0-1.083-0.167-1.583
				c-0.084-1.914-0.167-9.495-0.167-11.077c0.083-2.332-0.167-4.663,0.083-6.995c0.084-0.251,0-0.584,0-0.834
				c0-0.332-0.083-0.833-0.083-1.332c0.083-1.666,0.167-3.332,0.334-4.996c0.083-2.916,0.583-5.831,0.915-8.662
				c0.417-3.749,0.834-4.915,0.916-6.082c0.25-1.915,0.584-2.081,2.416-2.582c1.249-0.248,2.582-0.583,3.914-0.749
				c2.832-0.499,5.414-1.082,8.162-1.499c1.333-0.333,2.665-0.5,3.914-0.583c0.583,0,1-0.082,1.5-0.25
				C312.248,56.97,312.33,56.053,311.748,55.387z"/>
		</g>
		<g>
			<path d="M189.12,123.858c-1.583,0-2.915,0.167-4.413,0c-2.832-0.499-5.748-0.916-6.414,0.25c-0.166,0.251-0.582,0.5-0.582,0.667
				c-0.25,0.666-3.415,10.077-5.081,18.321c-0.083,0.834-1.665,6.914-1.999,8.996c-0.083,0.417-0.166,0.499-0.25,0.916
				c-0.333-0.084-0.333-0.499-0.333-0.667c-0.083-0.333-0.083-0.749-0.167-0.999c-0.082-0.583-0.332-1.25-0.416-1.833
				c-0.5-2.583-1.166-5.247-1.499-7.746c-0.333-1.832-0.916-3.581-1.749-5.079c-0.583-1.25-1.416-2-2.582-2.416
				c-0.666-0.584-1.666-0.749-2.415-1.166c-1.416,0.166-2.831,4.249-2.998,4.498c-1.499,2.499-2.665,4.914-4.165,7.413
				c-1.665,2.831-2.832,6.246-3.997,9.41c-0.417,1.166-0.916,2.416-1.416,3.916c-0.25-0.417-0.25-0.833-0.333-0.917
				c-0.416-1.833-0.832-3.666-1.082-5.497c-0.584-3.499-0.916-6.998-1.416-10.412c-0.25-2.831-0.667-5.413-0.834-8.077
				c-0.25-1.666-0.832-3.582-1.499-5.247c-0.249-0.834-0.999-1.583-1.582-1.917c-0.749-0.333-3.914-0.666-4.497-0.75
				c-1.083-0.499-2-0.332-2.998-0.166c-0.667,0-1.084,0.5-1.166,1.25c0,0.916,0.166,1.749,0.25,2.666
				c-0.084,0.499,2.498,18.739,2.831,20.072c0.5,1.999,0.999,4.08,1.833,6.245c1.664,4.747,3.664,15.076,7.994,16.158
				c0.75,0.167,6.996,1.083,7.33,0.917c0.749-0.083,1.249-0.499,1.415-1.332l0.417-0.75l2.666-13.243
				c0.665-2.916,1.414-5.663,2.581-8.412c0.25-0.75,0.499-1.416,0.833-2c0-0.25,0-0.415,0.333-0.333
				c0.249,0.585,0.249,1.001,0.499,1.583c0.334,3.832,0.75,7.662,1.25,11.495c0.25,2.498,0.833,4.996,1.666,7.579
				c0.666,2.497,1.498,4.914,2.748,7.162c0.416,1.082,1.166,1.666,2.165,2.165c0.083,0.249,0.5,0.249,0.583,0.5
				c0.5,0.5,1.25,0.667,2.082,0.916l1.916,0.25c0.75,0.083,1.25,0,1.832-0.417c0.334-0.249,0.75-0.583,0.75-0.916
				c0.166-0.666,0.333-1.248,0.416-1.833c0.416-1.914,0.75-3.746,1.499-5.663c0.417-1.498,0.916-3.33,1.167-4.913
				c0.415-1.833,3.747-12.909,4.496-15.908c0-0.25,0.084-0.666,0.25-0.916c0.5-0.668,7.329-20.073,7.58-20.822
				C193.785,125.274,191.203,123.774,189.12,123.858z"/>
			<path d="M207.104,123.774c-0.582,0-1.166,0-1.665-0.082c-1-0.084-1.915-0.167-2.915,0.082c-2.832,0-3.582-0.665-4.081,7.915
				c-0.083,0.416-0.083,0.832-0.083,1.332c0,1.249,0,2.582-0.084,3.999c0,1.499-0.083,3.164-0.083,4.662
				c-0.167,3.665-0.333,7.331-0.333,10.911c0,2.915,0,5.581,0.083,8.412c0.083,1.915,0,3.832-0.083,5.831
				c-0.084,1.165-0.084,2.332,0,3.498c0.166,1.499,0.25,2.997,0.416,4.497c0.084,1.083,0.5,1.998,1.25,2.749
				c0.25,0.083,0.332,0.167,0.499,0.416c0.251,0.25,0.583,0.333,0.833,0.333c0.5,0.167,1,0.083,1.416,0
				c0.5-0.165,0.916-0.25,1.416-0.333c1.332-0.333,2.664-0.916,3.998-1.249c0.583-0.167,0.832-0.5,0.916-1.165
				c0.083-0.334-0.084-0.667,0-1c-0.166-1.999-0.584-3.915-0.5-5.997v-1.832c-0.25-1.583-0.167-2.916-0.167-4.415
				c0.083-2,0.083-4.082,0.083-6.079c0-1.251,0-2.333,0.084-3.582c0.25-2.082,0.082-4.165,0.334-6.414
				c0.166-1.75,0.166-3.581,0.249-5.413c0-2,0.083-4.081,0.083-6.08c-0.166-0.999,0.083-2,0.25-2.998
				c0.084-0.667,0.166-1.334,0.166-1.916c0-1,0-1.999,0.084-3.083c0-0.166,0.083-0.332,0.083-0.5c0-0.916-0.249-1.415-0.833-1.997
				C208.104,123.858,207.604,123.774,207.104,123.774z"/>
			<path d="M239.584,153.675c-1.084-1.582-2.249-3.081-3.832-4.164c-0.666-0.417-1.249-1.083-1.998-1.416
				c-0.916-0.416-1.75-0.915-2.665-1.5c-0.75-0.582-1.499-0.998-2.249-1.498c-0.75-0.251-1.416-0.75-2.082-1.249
				c-0.666-0.334-1.166-0.833-1.5-1.417c-0.166-0.25-0.498-0.583-0.666-0.917c-0.749-0.832-1.332-1.916-1.748-2.997
				c-0.168-0.667-0.334-1.249-0.583-1.916c-0.75-2.583,0.249-4.997,2.081-7.413c4.248-3.832,10.661,1.666,15.575,7.246
				c0.25,0.584,0.833,0.917,1.415,1c0.5,0.166,0.834-0.083,1.25-0.334c0.083-0.082,0.332-0.166,0.499-0.332
				c0.333-0.167,0.501-0.501,0.583-0.833c0-0.583,0-1.25-0.082-1.833c-0.251-1.998-0.834-3.914-2.166-6.497
				c-0.5-0.666-1-1.249-1.582-1.916c-0.666-0.749-1.416-1.331-2.332-1.665l-2.416-1.166c-1.916-0.916-8.328-2.666-12.659,0.666
				c-0.5,0.417-1.083,0.834-1.583,1.333c-0.416,0.249-4.913,4.415-4.83,9.161c0,1.166,0,2.249,0.084,3.416
				c0.083,1.333,0.332,2.665,0.498,3.997c0,0.167,0.168,0.417,0.251,0.667c0.333,1.083,0.833,2.249,1.249,3.416l0.334,0.582
				c0.749,0.999,1.415,1.999,2.082,2.999l0.75,1.083c1.831,2.666,3.83,5.165,6.329,7.246c1.749,1.499,3.331,3.248,4.663,4.914
				c3.332,4.665,1,13.575-4.08,9.995c-0.168-0.166-0.416-0.166-0.583-0.334c-1.666-1-3.249-2.331-4.247-4.163
				c-0.75-1.167-1.584-2.332-1.916-3.666c-0.084-0.249-0.166-0.416-0.251-0.499c-0.333-0.917-0.999-1.416-1.915-1.749
				c-0.666-0.168-1.332-0.084-1.916,0.249c-0.416,0.249-0.916,0.416-1.415,0.833c-0.333,0.25-0.583,0.667-0.916,1.25
				c-0.667,1.25-1.916,1.833,1.999,7.745c0.166,0.25,0.416,0.584,0.666,0.75c1.249,1.333,2.581,2.664,3.998,3.831
				c1.832,1.584,3.914,2.749,6.412,3.083c2.832,0.583,5.664,0.166,8.162-1.583c0.416-0.416,0.916-0.665,1.416-1.082
				c2.915-2.249,4.997-5.081,6.08-8.745c1.166-4.082,0.666-7.913-1.832-11.494L239.584,153.675z"/>
			<path d="M288.885,127.19c0-0.749-0.25-1.583-0.332-2.499c-0.25-1.249-1.25-2.414-2.666-2.414c-0.916,0-1.832-0.083-2.831-0.169
				c-1.416-0.083-1.249,0.085-2.665,0c-0.25,0.169-0.75,0.085-1.166-0.083c-0.416-0.249-0.75,0-0.833,0.501
				c-0.25,0.5-0.417,1.082-0.417,1.665c-0.082,0.584,0,1.499-0.166,2.082c0,1.083-0.332,2.25-0.332,3.333
				c-0.252,2.331-0.334,4.663-0.584,6.996l-0.25,5.33c0.166,1.25,0,2.083,0,3.083c-0.25,1.415-0.25,2.915-0.25,4.331
				c0,1-0.166,8.662-0.166,11.161c-0.084,0.332-0.334,0.416-0.334,0.499c-0.166,0.083,0.167,0.25-0.25,0.25
				c-1.748-0.084-3.497-0.25-5.246-0.25c-0.75-0.333-6.83,0.5-9.078,0c-0.084,0-0.084-0.167-0.334-0.167
				c-0.082-0.582-0.082-1.416-0.249-1.998c-0.251-1.833-0.167-3.583-0.251-5.58c-0.166-2.75-0.166-5.664-0.166-8.414
				c-0.083-1.581-0.25-3.165-0.25-4.663c0-2.415,0.084-4.913,0.167-7.329c-0.083-2.082,0.083-3.831,0.249-5.83
				c0-0.499-0.166-0.998-0.166-1.5c0-0.748-0.666-1.247-1.499-1.415c-0.167-0.083-0.333-0.083-0.417-0.083
				c-1.165-0.167-2.248-0.5-3.33-0.583c-1.166-0.167-2.25-0.333-3.332-0.25c-0.584,0.167-0.833,0.25-1.083,0.999
				c-0.416,1.666-0.915,3.415-0.833,5.165c-0.082,0.416-0.082,0.833-0.082,1.332c-0.417,1.916-0.417,3.665-0.417,5.498
				c0.083,2.665,0.333,5.414,0.499,8.246c0.084,2.664,0.167,13.909,0.167,15.241c0.083,2.165,0.499,4.248,0.583,6.413
				c0,0.332,0,0.582,0.083,0.833c-0.083,2.332,0.999,3.664,1.333,5.995c0.416,2.582,1.166,3.083,2.164,3.249
				c1.834,0.25,3.749,0.25,5.582,0.333c0.748,0,1.082-0.333,1.248-0.832c0.084-0.334,1.083-4.748,0.916-5.164
				c-0.082-2-0.249-2.915-0.582-4.747v-1.167c-0.084-0.333,0.333-0.417,0.582-0.417c0.167,0.084,0.334,0.084,0.584,0.167
				c0.916,0.25,7.745-0.333,10.244-0.083c0.749-0.084,1.748,0.083,2.581,0.083c0.583,0.167,0.833,0.5,0.999,1.249l0.084,0.584
				c0.166,2.082,0.334,4.08,0.582,6.08c0,1.081,0.168,2.166,0.25,3.333c0.167,0.582,0.334,0.915,0.834,1.415
				c0.416,0.499,0.916,0.75,1.832,0.75c0.583,0.249,0.999,0.499,1.665,0.582c0.75,0.083-0.249,0.333,0.417,0.417
				c0.166,0.083,0.5,0.083,0.75,0.166l2.582-0.166c0.832,0,1.249-0.75,1.998-1.083c0.167-0.417,0.167-0.916,0.416-1.416
				c-0.166-2.499-0.249-4.998-0.166-7.329c0-2.582-0.083-4.831,0.084-7.328c-0.084-0.584,0.082-1.251,0.082-1.833
				c0.084-2.332,0.084-4.582,0.167-6.912c0.333-2.083,0.251-4.083,0.251-6.166c0.166-1.499,0.082-2.914,0.248-4.413
				c0.168-2.748,0.417-5.579,0.334-8.329C288.719,131.772,288.802,129.523,288.885,127.19z"/>
		</g>
		<g>
			<path d="M172.881,190.139c-0.393,0-0.785,0.048-1.176,0.097c-1.813-0.097-12.836-0.097-13.375-0.048
				c-0.686,0.048-1.371,0.048-1.861,0.49c-0.147,0.049-0.245,0.293-0.295,0.44c0.05,0.049,0.246,0.245,0.393,0.245
				c0.295,0,0.637,0,0.931-0.048c1.47-0.147,1.323,0.392,1.323,1.469c0.146,1.959,0.146,3.823,0.098,5.732
				c-0.098,1.665-0.244,3.282-0.244,4.949c-0.099,2.155-0.099,4.31-0.246,6.367c-0.098,1.764,0,3.528,0.049,5.291
				c0.049,0.834,0.049,1.471,0.049,2.206c-0.146-0.051-0.489,0-1.273,0.146c-0.195,0.049-0.391,0.245-0.539,0.343
				c-0.244,0.196-0.146,0.343-0.098,0.49c0,0.195,0.882,0.049,1.226,0.049c1.272,0,1.519,0.097,2.694,0.05l3.869-0.05
				c0.441,0,0.49-0.294,0.735-0.637c0.099-0.146-0.147-0.391-0.636-0.442c-0.246,0-0.491-0.049-0.785-0.096
				c0.049-0.196,0.049-0.344,0.049-0.833c0-0.491,0.197-0.98,0.197-1.471c0.098-0.635,0.098-1.371,0.146-2.105
				c0.195-3.233,0.49-6.565,0.439-9.847c0-0.49,0.1-1.078,0.1-1.078c1.42-0.246,3.331-0.392,4.801-0.491
				c0.195,0.05,0.392,0.05,0.588-0.049c0.343-0.05,0.588-0.343,0.441-0.685c0-0.245-0.295-0.491-0.687-0.343
				c-0.343,0-0.687,0.195-1.077,0.195c-0.637,0.049-1.177,0.195-1.813,0.245c-0.638,0.05-1.373,0.05-2.107,0.099v-7.153
				c0-0.685,0.049-1.323,0-1.959c0.098-0.441,0.098-0.441,0.146-0.441c2.205,0,5.34-0.098,7.447,0.098
				c0.244-0.048,0.49,0,0.735-0.098c0.293-0.049,0.44-0.294,0.343-0.587C173.469,190.383,173.223,190.089,172.881,190.139z"/>
			<path d="M187.575,189.011c-0.195-0.049-2.743-0.489-5.046,0.932c-0.637,0.34-1.322,0.685-1.861,1.273
				c-0.294,0.293-0.686,0.588-0.98,0.931c-0.44,0.49-0.881,1.028-1.225,1.617c-3.723,6.563-3.771,10.335-3.232,14.158
				c0.293,1.616,0.734,3.184,1.615,4.653c0.295,0.589,0.688,1.128,1.029,1.715c0.49,0.783,1.176,1.321,1.715,1.862
				c0.882,0.734,1.911,1.125,2.842,1.518c0.686,0.246,1.47,0.393,2.156,0.638c0.686,0.146,1.322,0.146,2.057-0.05
				c0.735-0.195,1.372-0.588,2.058-0.98c0.638-0.342,1.127-0.879,1.567-1.42c0.589-0.684,1.176-1.42,1.568-2.301
				c0.293-0.589,0.539-1.029,0.783-1.617c0.197-0.637,0.441-1.273,0.588-1.813c0.295-1.127,0.637-2.204,0.734-3.283
				c0.393-2.352,0.344-6.76-0.195-9.21C192.671,192.93,191.445,189.355,187.575,189.011z M192.72,207.236
				c-0.099,0.932-0.392,1.813-0.589,2.792l-0.488,1.127c-0.49,1.177-1.666,3.283-4.067,3.185c-0.489-0.049-0.931-0.245-1.323-0.54
				c-0.881-0.588-1.567-1.323-2.154-2.204c-0.245-0.489-0.637-1.078-0.834-1.519c-0.539-1.126-0.979-2.204-1.225-3.331
				c-0.146-0.686-0.244-1.323-0.392-1.911v-0.687c-0.099-0.88-0.146-1.763-0.294-2.645c0.098-1.617,0.246-3.136,0.686-4.704
				c0.393-1.174,0.883-2.154,1.471-3.135c0.93-1.419,1.666-2.057,3.625-2.938c1.029-0.443,2.254-0.049,2.939,0.734
				C191.445,192.93,194.287,200.377,192.72,207.236z"/>
			<path d="M212.314,191.559c-1.029-0.588-2.009-1.078-3.233-1.371c-1.764-0.539-3.576-0.833-5.389-0.736
				c-1.176,0.048-2.353,0.048-3.332,0.097c-1.177,0.1-2.155,0.296-3.185,0.441c-0.294,0.099-0.49,0.149-0.734,0.293
				c-0.098,0.051-0.049,0.49,0,0.54c0.293,0.196,0.588,0.246,0.783,0.147c0.246-0.048,1.52-0.147,1.52-0.147
				c-0.05,0.637-0.05,1.764-0.098,2.401l-0.295,5.193c0,2.156-0.195,4.408-0.195,6.664c0,1.42-0.098,2.841-0.147,4.359
				c0,7.054,0.245,7.495,0.294,7.495h-0.098c-0.344,0.049-0.637,0-1.421,0.148c-0.392,0-0.637,0.245-0.637,0.586
				c0.049,0.344,0.245,0.588,0.587,0.588h0.05c0.098,0.05,0.294,0,0.539-0.048c1.028-0.049,1.911-0.195,2.89-0.245
				c0.688,0,1.52-0.097,2.205-0.097c0.49-0.05,0.637-0.198,0.734-0.736c0-1.03,0.197-2.106,0.099-3.088
				c0-1.762-0.196-3.429-0.245-5.192c0.049-0.097,0-0.491,0-0.685l0.294,0.097c0.979,0.342,2.106,1.274,2.792,2.107
				c1.422,2.057,2.939,4.115,4.508,6.074c0.441,0.638,0.784,0.932,1.225,1.422l0.734,0.489c0.785,0.246,1.078-0.637,0.539-1.128
				h0.099c-0.147,0-0.245-0.097-0.245-0.097h-0.049c-0.687-0.441-1.127-0.882-1.617-1.323c-0.49-0.635-0.979-1.421-1.469-2.057
				c-0.834-1.225-1.764-2.352-2.499-3.38c-1.372-2.204-1.96-2.744-2.694-2.938h0.049l1.225-0.343
				c2.793-1.029,5.879-2.45,7.838-5.438c1.078-1.717,1.274-2.548,1.568-4.557C215.254,194.547,214.078,192.93,212.314,191.559z
				 M210.697,203.415c-1.029,0.833-2.4,1.567-3.82,2.107c-0.735,0.39-1.52,0.489-2.598,0.685c-0.195,0-0.93,0-1.176-0.049
				c-0.049,0-0.098-0.245-0.098-0.88c0-1.717,0.146-3.479,0.196-5.242c0.098-1.763,0.588-7.448,0.686-9.162
				c0.049-0.1-0.098-0.245,0.099-0.392c1.42,0,3.82,0.098,6.564,1.274c2.058,0.979,3.233,2.204,3.43,3.722
				C214.666,198.319,213.049,201.944,210.697,203.415z"/>
			<path d="M239.988,190.432l-1.764,0.049c-0.441,0.048-0.98,0-1.52,0c-0.734,0.098-4.654,0.098-5.634,0.196l-0.196,0.049
				c-0.245,0.147-0.392,0.343-0.392,0.49c0,0.146,0.099,0.293,0.343,0.441c0.099,0,0.196,0.049,0.245,0c0.343,0,0.687,0,1.078-0.049
				h1.322c0.049,0.098,0.049,0.148,0.049,0.148c0,1.077-0.146,6.025-0.195,7.201c0,0.343-0.05,4.85-0.099,6.075
				c0,1.175-0.146,2.302-0.098,3.526c-0.049,0.687-0.146,7.399-0.146,8.328c0,0.492-0.147,0.147-0.637,0.295
				c-0.147-0.049-0.295,0-0.441,0.047c-0.098,0-0.245,0-0.441,0.049c-0.244,0.1-0.342,0.491-0.342,0.687
				c0.049,0.293,0.293,0.442,0.686,0.442h0.244c0.539-0.099,1.176-0.099,1.911-0.149c1.323-0.097,2.646,0.149,4.067-0.048
				c0.195,0.048,0.439,0.048,0.587,0.098c0.245,0.049,0.44,0,0.588,0c0.343,0.099,0.587-0.05,0.784-0.147
				c0.146-0.146,0.195-0.637,0.049-0.883c-0.148-0.194-0.393-0.244-0.687-0.244c-0.196,0.05-0.392,0.05-0.637,0.05
				c-0.245,0.098-0.489,0-0.638-0.05c-0.047-0.048-0.047-0.147-0.047-0.196c-0.051-0.146-0.051-0.343-0.051-0.439l0.051-1.765
				c0-0.245,0-0.44,0.195-4.556c0-0.441,0-0.783-0.05-1.175c0-0.734,0.294-9.896,0.343-11.17c0.049-0.734,0.147-1.372,0.099-2.008
				c0.049-0.342,0-0.784,0.098-1.127c0.05-0.931,0.196-1.813,0.294-2.695c0-0.097,0.049-0.146,0.098-0.244
				c0.099-0.049,0.196-0.147,0.344-0.147h1.813c0.294-0.049,0.49-0.245,0.637-0.587C241.85,190.334,240.771,190.579,239.988,190.432
				z"/>
			<path d="M259.24,190.089l-4.263,0.05c-0.589,0.048-1.077,0-1.665,0c-0.686,0.097-7.398,0.097-8.329,0.244l-0.195,0.098
				c-0.295,0.048-0.441,0.292-0.441,0.441c0,0.146,0.099,0.342,0.343,0.44c0.146,0,0.245,0.05,0.294,0h5.095
				c0.049,0.05,0.049,0.098,0.049,0.098c0,1.079-0.146,6.172-0.195,7.3c0,0.391-0.049,4.996-0.098,6.221
				c0,1.225-0.098,2.352-0.098,3.479l-0.098,8.623c0,0.391,0.195,1.323,0.881,1.273c1.372-0.099,2.694,0.146,4.262-0.049
				c0.441,0,0.049-1.568,0.049-1.764l-0.049-1.763c0-0.343,0-0.491,0.196-4.654c0-0.441,0-0.833-0.049-1.324
				c0-0.685,0.343-10.042,0.392-11.218c0.049-0.785,0.146-1.371,0.098-2.107c0.049-0.342,0-0.784,0.1-1.126
				c0-0.931,0.146-1.812,0.195-2.744c0-0.098,0.049-0.147,0.098-0.245c0.146,0,0.195-0.098,0.294-0.098h4.556
				c0.344-0.049,0.491-0.294,0.637-0.686C261.248,189.99,260.171,190.236,259.24,190.089z"/>
			<path d="M265.922,217.07v-0.505c-0.253-1.264-2.327-0.657-2.58,0.859c-0.102,0.557,0.253,0.962,0.81,1.064
				c0.304,0.051,0.606,0,0.962-0.102C265.82,218.083,266.023,217.781,265.922,217.07z"/>
		</g>
		<g>
			<path d="M175.754,230.641c-1.582,0-2.915,0.166-4.413,0c-2.832-0.499-5.748-0.915-6.413,0.25c-0.167,0.251-0.583,0.5-0.583,0.666
				c-0.25,0.667-3.415,10.079-5.081,18.322c-0.083,0.834-1.666,6.915-1.998,8.997c-0.084,0.416-0.166,0.499-0.25,0.916
				c-0.334-0.084-0.334-0.5-0.334-0.667c-0.084-0.333-0.084-0.749-0.166-0.999c-0.084-0.583-0.333-1.249-0.416-1.832
				c-0.5-2.583-1.167-5.248-1.5-7.746c-0.332-1.833-0.916-3.582-1.749-5.081c-0.583-1.249-1.416-1.999-2.581-2.416
				c-0.667-0.582-1.666-0.749-2.416-1.166c-1.415,0.167-2.831,4.249-2.998,4.499c-1.499,2.498-2.665,4.913-4.164,7.412
				c-1.666,2.832-2.832,6.247-3.998,9.412c-0.416,1.165-0.916,2.415-1.416,3.915c-0.25-0.417-0.25-0.834-0.333-0.917
				c-0.417-1.833-0.832-3.666-1.082-5.497c-0.583-3.498-0.917-6.997-1.417-10.41c-0.248-2.833-0.666-5.414-0.832-8.079
				c-0.25-1.667-0.832-3.582-1.499-5.247c-0.251-0.834-0.999-1.583-1.582-1.917c-0.75-0.333-3.915-0.667-4.498-0.75
				c-1.083-0.5-1.999-0.333-2.999-0.167c-0.666,0-1.082,0.5-1.165,1.25c0,0.917,0.167,1.748,0.249,2.666
				c-0.082,0.499,2.499,18.739,2.832,20.071c0.5,1.999,1,4.081,1.832,6.246c1.666,4.747,3.664,15.075,7.996,16.158
				c0.749,0.166,6.996,1.082,7.329,0.916c0.749-0.083,1.249-0.5,1.417-1.332l0.414-0.75l2.666-13.244
				c0.666-2.914,1.416-5.663,2.582-8.411c0.25-0.75,0.499-1.416,0.833-2c0-0.25,0-0.417,0.333-0.333c0.25,0.584,0.25,1,0.5,1.583
				c0.332,3.831,0.749,7.662,1.25,11.494c0.248,2.499,0.832,4.996,1.665,7.578c0.665,2.499,1.499,4.915,2.748,7.163
				c0.416,1.083,1.166,1.666,2.165,2.166c0.084,0.25,0.5,0.25,0.584,0.499c0.499,0.501,1.248,0.667,2.082,0.917l1.915,0.25
				c0.749,0.083,1.249,0,1.833-0.417c0.332-0.249,0.748-0.583,0.748-0.916c0.168-0.667,0.335-1.25,0.418-1.833
				c0.416-1.915,0.748-3.747,1.498-5.664c0.417-1.499,0.916-3.33,1.166-4.915c0.416-1.832,3.748-12.908,4.498-15.907
				c0-0.249,0.084-0.666,0.25-0.916c0.5-0.667,7.328-20.073,7.578-20.822C180.418,232.057,177.836,230.557,175.754,230.641z"/>
			<path d="M214.727,243.717c-0.083-0.999-0.166-1.915-0.416-2.915c-1.25-5.58-11.244-15.075-20.738-10.911
				c-2.748,1.167-4.664,2.415-6.58,4.665c-1.082,1.249-1.915,2.665-2.581,4.164c-1.166,2.666-1.999,5.332-2.749,8.162
				c-0.666,2.333-0.998,4.663-1.332,9.745c0.084,2.165,0.25,4.247,0.666,6.33c0.75,3.498,1.832,6.745,3.415,9.827
				c1.416,2.749,3.249,4.998,5.58,7.079c2.165,1.749,4.747,3.082,7.495,4.165c1.166,0.667,2.416,0.667,3.832,0.417
				c1.665-0.417,2.998-1.167,4.164-2.166c0.749-0.833,1.416-1.665,2.082-2.499c1.416-2.082,2.332-4.164,3.248-6.413
				c0.5-1.165,0.999-2.581,1.416-3.915c0.5-1.166,0.916-2.248,1.249-3.332c0.417-1.415,0.751-2.831,0.833-4.247
				c0.167-1.499,0.25-2.916,0.416-4.331l0.416-7.579c0-1.416-0.166-2.749-0.166-4.332
				C214.895,245.049,214.895,244.384,214.727,243.717z M209.314,259.958c-2.332,12.41-7.413,28.15-14.742,9.911
				c-1.5-3.916-1.75-8.745-1.75-9.993c0-3.332,0.084-6.665,0.75-9.997c0-0.582,0.084-1.081,0.084-1.665
				c0.499-3.415,1.498-6.913,2.832-10.328c0.748-1.498,1.665-2.997,2.748-4.414c0.5-0.583,1.082-1,1.915-1.25
				c2.415-0.5,9.578,4.082,9.578,12.577v1.165C210.729,246.465,211.479,248.964,209.314,259.958z"/>
			<path d="M239.625,260.79c0.334-0.083,0.666-0.083,1.167-0.083c0.249,0,4.164-0.999,5.913-1.749
				c1.998-0.665,4.08-1.749,5.912-3.081c1.334-0.833,2.5-1.915,3.332-3.165c0.75-1.084,1.749-1.999,2.333-3.415
				c3.997-7.495,3.997-11.411-1.666-14.824c-1.083-0.417-2.416-0.667-3.665-0.667c-1.082,0.25-1.999,0.166-3.165,0.75
				c-1.915,0.75-4.081,1.415-6.995,4.248c-0.584,0.499-1.084,0.999-1.75,1.749c-1.498,1.582-2.832,2.999-4.08,4.997
				c-0.166,0.333-0.584,0.832-1.166,0.832c0.083-0.249-0.084-0.333-0.084-0.583c0.167-0.583,0-1.25,0.167-1.999
				c0.416-3.082,0.999-6.163,1.499-9.494c0-0.583,0.166-1.083,0.166-1.667c0.084-1.165-0.666-1.833-1.832-2.083
				c-5.33-0.332-12.992-0.083-13.158,2.833c-0.5,0.833-0.5,1.666-0.5,2.581c0,1.084-0.084,2-0.25,5.748
				c-0.416,3.082-0.582,6.163-0.916,9.162c0,1.666-0.25,3.248-0.25,4.996c0.082,0.417,0.082,0.5,0,0.583
				c-0.167,2.416-0.25,4.581-0.25,6.746l-0.25,3.666c0,1.248-0.083,2.665,0,4.079c0,8.912,0.084,10.994,0.5,12.744
				c0.416,0.417,0.75,0.75,1.082,1c0.666,0.25,1,0.499,1.416,0.749c2.416,1,4.748,1.499,7.08,1.998c0.416,0.084,0.998,0.084,1.416,0
				c1.082-0.166,1.414-0.665,1.498-1.749v-0.332c0.084-1.333,0-2.582,0.251-3.999c0-0.748,0.083-1.415,0-2.165
				c0.083-1.666-0.083-3.415,0.167-4.998c0.082-0.25,0.082-0.583,0-0.75c0.082-2.082,0.082-3.914,0.166-5.996l0.499-5.58
				c-0.083-0.333,0-0.666,0.167-0.916c1.25,0.334,2.998,3.497,3.996,5.58c1.5,3.082,3.75,5.831,5.832,8.411
				c2.248,2.333,4.662,4.331,7.828,5.331c1.416,0.583,3.082,0.749,5.164,0.5c0.499-0.166,1.083-0.335,1.582-0.833
				c0.749-0.25,0.916-1.499,0.416-2.332c-0.416-0.417-1.249-0.833-1.832-1.001c-1.166,0-2.498-0.166-3.498,0.584
				c-0.416,0.084-0.832,0.167-1.166-0.083c-1.498-0.501-2.915-1.167-4.164-2.25c-2.332-2.166-4.164-4.746-5.496-7.245l-2.249-4.082
				c-0.667-0.75-1-1.415-1.417-2.165C239.126,261.04,239.375,260.79,239.625,260.79z M236.877,256.709
				c0-0.25,2.166-4.164,3.082-5.664c1.665-2.748,3.498-5.163,5.496-7.329c1.084-0.999,1.916-1.915,2.916-2.748
				c1.332-1.25,2.665-2.083,4.164-2.999c0.583-0.168,1.416-0.334,2.082-0.417c0.25-0.083,0.333-0.083,0.416-0.083
				c1.334,0,1.916,1.582,1.334,4.415c0,0.5-1.168,4.913-6.747,10.993v0.084c-1.249,1-3.165,2.166-3.415,2.166
				c-1.249,0.415-2.582,0.917-3.748,1.332c-0.916,0.25-2.081,0.583-2.998,0.667C238.627,257.208,237.793,257.126,236.877,256.709z"
				/>
			<path d="M302.002,231.224c-0.75-0.583-1.583-0.916-2.582-0.833c-0.834,0.083-1.5,0.416-1.998,0.833
				c-0.334,0.333-0.501,0.667-0.834,0.833c-1.5,1-2.748,2.25-3.831,3.581c-1.915,2.333-4.081,4.748-5.913,7.162
				c-1.166,1.667-2.499,3.083-3.664,4.665c-0.416,0.666-0.834,1.167-1.25,1.667c-0.166,0.166-0.332,0.25-0.499,0.332
				c-0.501-0.332-0.333-0.749-0.417-1.083c0.5-2.831,0.75-5.496,1-8.161c0.415-3.416,0.666-6.914,1.332-10.245v-1.083
				c-0.333-1.415-1.582-2.082-2.915-1.499c-1.165,0.584-2.248,0.75-3.331,0.75l-3.832,0.416c-0.166-0.167-0.499,0-0.666-0.083
				c-0.916,0-1.665,0.332-2.415,0.834c-0.5,0.332-0.917,0.748-0.999,1.415c-0.084,0.999-0.332,1.915-0.416,2.832
				c-0.334,2.666-0.667,5.33-0.917,8.079c-0.333,2.581-0.499,5.163-0.666,7.828c-0.333,4.499-0.751,9.078-0.999,13.577
				c-0.167,2.747-0.084,5.496,0,8.16c0.082,1.334,0,2.666,0.082,3.915c0.25,2.083,0.584,4.165,0.834,6.331
				c0.166,1.499,0.832,2.749,1.666,3.915c0.166,0.416,0.498,0.666,0.915,0.75c1.833,0.333,3.581,0.416,5.331-0.084
				c2.248-0.583,2.915-0.999,2.915-3.082l-0.084-4.83c0.25-2.333,0.667-4.749,0.999-7.165l0.5-4.58
				c0.25-1.581,0.417-3.33,0.584-4.914c0.082-0.417,0.166-0.833,0.332-1.167c0.25-0.249,0.416-0.583,0.834-0.583
				c0.25,0.25,0.5,0.334,0.749,0.583c0.917,1.083,1.832,2.083,2.749,3.083c1.415,1.249,4.414,5.58,5.496,7.244
				c1.666,2.582,3.665,5.164,4.747,8.162l0.417,0.417c0.416,0.167,0.75,0.167,1.166,0.416c0.75,0.25,1.416,0.167,1.998-0.249
				c1-0.584,1.416-1.001,1-1.999c-0.084-0.917-0.5-2-1-2.917c-1.248-2.165-2.581-4.246-3.914-6.413
				c-1.25-1.916-2.498-3.83-7.33-9.16c-1.248-1.333-3.164-2.915-3.33-3.333c0.166-0.332,0.332-0.665,0.499-0.915
				c0.833-1.333,0.917-1.75,1.749-3c1.916-2.664,3.832-5.33,6.08-7.661c1.666-1.999,3.248-3.998,4.914-6.08
				c1.332-1.416,2.416-2.997,3.998-4.248c0.416-0.5,0.832-1,1.164-1.666C302.25,231.724,302.25,231.308,302.002,231.224z"/>
		</g>
		<g>
			<path d="M173.371,297.902c-0.393,0-0.784,0.047-1.176,0.097c-1.813-0.097-12.836-0.097-13.375-0.049
				c-0.686,0.049-1.371,0.049-1.861,0.491c-0.147,0.049-0.246,0.293-0.293,0.44c0.047,0.05,0.244,0.245,0.391,0.245
				c0.294,0,0.637,0,0.931-0.049c1.47-0.146,1.323,0.393,1.323,1.471c0.146,1.958,0.146,3.82,0.098,5.731
				c-0.098,1.666-0.244,3.282-0.244,4.948c-0.099,2.156-0.099,4.311-0.246,6.369c-0.098,1.764,0,3.528,0.049,5.291
				c0.05,0.833,0.05,1.471,0.05,2.206c-0.147-0.049-0.491,0-1.274,0.146c-0.195,0.049-0.392,0.244-0.539,0.344
				c-0.244,0.194-0.146,0.342-0.098,0.489c0,0.195,0.882,0.049,1.225,0.049c1.273,0,1.52,0.098,2.695,0.049l3.87-0.049
				c0.44,0,0.489-0.294,0.734-0.638c0.099-0.146-0.146-0.391-0.637-0.44c-0.245,0-0.489-0.05-0.783-0.098
				c0.048-0.196,0.048-0.344,0.048-0.834c0-0.489,0.197-0.979,0.197-1.47c0.097-0.634,0.097-1.369,0.146-2.105
				c0.195-3.233,0.49-6.565,0.44-9.847c0-0.49,0.099-1.079,0.099-1.079c1.42-0.244,3.331-0.39,4.801-0.489
				c0.195,0.05,0.393,0.05,0.588-0.049c0.344-0.048,0.588-0.342,0.441-0.686c0-0.245-0.295-0.49-0.687-0.343
				c-0.343,0-0.686,0.196-1.077,0.196c-0.638,0.05-1.176,0.195-1.813,0.245c-0.637,0.049-1.371,0.049-2.106,0.098v-7.153
				c0-0.685,0.049-1.322,0-1.958c0.098-0.442,0.098-0.442,0.146-0.442c2.205,0,5.341-0.097,7.447,0.098
				c0.245-0.049,0.49,0,0.734-0.098c0.295-0.049,0.441-0.294,0.344-0.587C173.959,298.146,173.713,297.853,173.371,297.902z"/>
			<path d="M188.065,296.773c-0.195-0.049-2.743-0.489-5.045,0.932c-0.638,0.342-1.323,0.685-1.862,1.273
				c-0.294,0.294-0.687,0.588-0.979,0.931c-0.441,0.489-0.882,1.028-1.225,1.617c-3.724,6.564-3.772,10.337-3.233,14.158
				c0.293,1.616,0.734,3.184,1.616,4.654c0.294,0.587,0.686,1.126,1.029,1.714c0.489,0.783,1.176,1.322,1.714,1.861
				c0.883,0.736,1.911,1.127,2.842,1.519c0.686,0.245,1.47,0.392,2.156,0.637c0.686,0.146,1.322,0.146,2.057-0.05
				c0.735-0.195,1.372-0.587,2.059-0.979c0.637-0.343,1.126-0.881,1.567-1.42c0.587-0.686,1.176-1.421,1.567-2.303
				c0.293-0.587,0.539-1.028,0.783-1.616c0.196-0.637,0.441-1.274,0.588-1.813c0.295-1.126,0.637-2.204,0.736-3.283
				c0.391-2.351,0.342-6.761-0.197-9.211C193.16,300.693,191.937,297.116,188.065,296.773z M193.21,315
				c-0.099,0.931-0.392,1.812-0.589,2.791l-0.489,1.128c-0.489,1.175-1.665,3.282-4.066,3.183c-0.489-0.047-0.931-0.245-1.323-0.539
				c-0.881-0.588-1.566-1.322-2.154-2.204c-0.245-0.49-0.637-1.078-0.833-1.519c-0.539-1.126-0.979-2.206-1.225-3.332
				c-0.147-0.685-0.245-1.322-0.392-1.91v-0.686c-0.1-0.881-0.147-1.764-0.295-2.646c0.099-1.617,0.245-3.135,0.687-4.703
				c0.392-1.176,0.882-2.157,1.47-3.136c0.93-1.42,1.666-2.058,3.625-2.939c1.029-0.441,2.253-0.049,2.939,0.734
				C191.937,300.693,194.777,308.14,193.21,315z"/>
			<path d="M212.805,299.323c-1.029-0.589-2.009-1.079-3.233-1.374c-1.765-0.538-3.577-0.833-5.39-0.734
				c-1.176,0.048-2.352,0.048-3.33,0.098c-1.176,0.099-2.156,0.294-3.185,0.441c-0.295,0.099-0.49,0.148-0.735,0.293
				c-0.098,0.05-0.049,0.49,0,0.54c0.294,0.195,0.588,0.245,0.783,0.146c0.246-0.048,1.52-0.146,1.52-0.146
				c-0.049,0.636-0.049,1.763-0.098,2.4l-0.295,5.193c0,2.156-0.195,4.408-0.195,6.663c0,1.421-0.099,2.842-0.146,4.36
				c0,7.054,0.244,7.495,0.293,7.495h-0.098c-0.344,0.049-0.637,0-1.421,0.149c-0.392,0-0.637,0.244-0.637,0.586
				c0.05,0.342,0.245,0.587,0.588,0.587h0.049c0.098,0.05,0.294,0,0.539-0.047c1.028-0.049,1.91-0.197,2.891-0.246
				c0.686,0,1.519-0.097,2.204-0.097c0.49-0.049,0.637-0.197,0.734-0.735c0-1.03,0.197-2.107,0.098-3.087
				c0-1.764-0.195-3.428-0.244-5.194c0.049-0.098,0-0.49,0-0.685l0.294,0.098c0.98,0.342,2.106,1.273,2.793,2.106
				c1.42,2.057,2.938,4.115,4.507,6.074c0.441,0.639,0.784,0.931,1.225,1.422l0.734,0.489c0.784,0.246,1.078-0.638,0.54-1.128h0.098
				c-0.147,0-0.245-0.096-0.245-0.096h-0.049c-0.686-0.442-1.127-0.883-1.617-1.323c-0.489-0.638-0.979-1.422-1.469-2.058
				c-0.833-1.225-1.764-2.351-2.5-3.38c-1.371-2.204-1.959-2.745-2.693-2.939h0.049l1.225-0.344
				c2.793-1.028,5.879-2.449,7.838-5.437c1.078-1.716,1.274-2.548,1.568-4.558C215.744,302.31,214.568,300.693,212.805,299.323z
				 M211.188,311.178c-1.029,0.832-2.4,1.566-3.821,2.105c-0.735,0.393-1.519,0.49-2.596,0.687c-0.196,0-0.931,0-1.176-0.049
				c-0.05,0-0.099-0.245-0.099-0.881c0-1.716,0.146-3.479,0.197-5.242c0.097-1.764,0.587-7.448,0.685-9.162
				c0.05-0.099-0.098-0.245,0.099-0.392c1.42,0,3.821,0.097,6.564,1.272c2.058,0.981,3.232,2.206,3.429,3.724
				C215.156,306.083,213.539,309.708,211.188,311.178z"/>
			<path d="M240.479,298.194l-1.765,0.05c-0.44,0.049-0.979,0-1.519,0c-0.734,0.097-4.654,0.097-5.633,0.196l-0.197,0.049
				c-0.244,0.147-0.391,0.343-0.391,0.49s0.098,0.294,0.342,0.44c0.099,0,0.196,0.05,0.246,0c0.342,0,0.686,0,1.077-0.049h1.323
				c0.049,0.099,0.049,0.146,0.049,0.146c0,1.079-0.148,6.027-0.195,7.203c0,0.343-0.051,4.85-0.1,6.076
				c0,1.175-0.146,2.301-0.098,3.527c-0.049,0.685-0.146,7.396-0.146,8.329c0,0.489-0.146,0.145-0.637,0.293
				c-0.148-0.048-0.295,0-0.441,0.047c-0.098,0-0.244,0-0.441,0.05c-0.244,0.098-0.342,0.489-0.342,0.686
				c0.049,0.293,0.293,0.441,0.686,0.441h0.244c0.539-0.098,1.176-0.098,1.911-0.148c1.323-0.097,2.646,0.148,4.066-0.047
				c0.195,0.047,0.44,0.047,0.587,0.097c0.246,0.049,0.441,0,0.589,0c0.343,0.098,0.587-0.05,0.784-0.146
				c0.146-0.148,0.195-0.638,0.048-0.882c-0.146-0.194-0.392-0.246-0.685-0.246c-0.197,0.051-0.393,0.051-0.637,0.051
				c-0.246,0.097-0.491,0-0.639-0.051c-0.048-0.048-0.048-0.145-0.048-0.196c-0.05-0.146-0.05-0.343-0.05-0.439l0.05-1.765
				c0-0.245,0-0.44,0.195-4.556c0-0.441,0-0.784-0.048-1.175c0-0.734,0.293-9.896,0.342-11.17c0.05-0.735,0.147-1.372,0.098-2.008
				c0.05-0.342,0-0.783,0.1-1.128c0.049-0.931,0.195-1.811,0.293-2.694c0-0.098,0.049-0.148,0.098-0.246
				c0.099-0.049,0.196-0.146,0.344-0.146h1.813c0.294-0.05,0.49-0.246,0.637-0.588C242.34,298.097,241.262,298.341,240.479,298.194z
				"/>
			<path d="M259.73,297.853l-4.263,0.049c-0.587,0.047-1.078,0-1.665,0c-0.686,0.097-7.398,0.097-8.328,0.244l-0.196,0.099
				c-0.294,0.049-0.441,0.293-0.441,0.441c0,0.146,0.099,0.342,0.343,0.44c0.147,0,0.246,0.048,0.295,0h5.095
				c0.048,0.048,0.048,0.098,0.048,0.098c0,1.079-0.146,6.172-0.195,7.3c0,0.392-0.049,4.997-0.098,6.221
				c0,1.226-0.098,2.352-0.098,3.479l-0.098,8.624c0,0.39,0.195,1.321,0.881,1.272c1.372-0.099,2.695,0.146,4.263-0.049
				c0.44,0,0.049-1.568,0.049-1.764l-0.049-1.763c0-0.343,0-0.49,0.195-4.654c0-0.441,0-0.833-0.049-1.323
				c0-0.686,0.344-10.043,0.392-11.218c0.05-0.784,0.147-1.372,0.099-2.108c0.049-0.342,0-0.783,0.098-1.126
				c0-0.932,0.147-1.812,0.196-2.744c0-0.097,0.049-0.147,0.098-0.245c0.146,0,0.196-0.098,0.294-0.098h4.557
				c0.343-0.049,0.489-0.294,0.638-0.687C261.738,297.754,260.66,297.999,259.73,297.853z"/>
			<path d="M265.432,324.746v-0.505c-0.252-1.265-2.326-0.658-2.58,0.86c-0.102,0.559,0.254,0.963,0.809,1.063
				c0.304,0.051,0.607,0,0.962-0.1C265.33,325.759,265.533,325.457,265.432,324.746z"/>
		</g>
	</g>
	<path fill="#C29347" d="M132.777,352.999c4.106,1.915,7.273,5.271,10.403,8.512c-2.774,4.232-5.579,8.426-7.856,12.958
		c-0.646,1.288,0.844,3.379,2.194,3.379c1.397-0.001,2.755,0.203,4.147,0.141c1.719-0.079,3.309-1.252,5.02-1.502
		c2.179-0.317,4.604,2.516,6.627,0.479c1.709-1.721,4.575,0.529,6.764-1.214c-0.119,0.096,3.143,0.837,3.534,0.802
		c1.842-0.154,2.44-1.321,4.649-0.754c1.098,0.285,1.353,0.184,2.445-0.181c0.352-0.326,0.752-0.577,1.197-0.751
		c1.024-0.512,1.717,0.64,2.568,0.802c1.817,0.353,2.695-0.251,3.582-1.867c2.16-3.938,1.707-9.026,3.779-12.938
		c7.813-0.461,15.623-0.961,23.432-1.473c0.002,0.008,0.004,0.019,0.007,0.027c0.048,1.613,0.773,3.092,2.31,3.922
		c2.32,1.256,5.834,0.941,7.868-0.731c1.328-1.094,1.608-2.526,1.272-3.959c1.464-0.093,2.928-0.184,4.391-0.278
		c1.149,2.979,4.921,4.147,7.92,2.771c1.605-0.734,2.396-2.004,2.578-3.403c2.426-0.143,4.854-0.282,7.281-0.413
		c0.141,0.211,0.299,0.409,0.477,0.595c0.167,0.188,0.36,0.358,0.57,0.512c0.688,0.543,1.51,0.958,2.334,1.245
		c0.996,0.389,2.077,0.601,3.105,0.325c0.003,0,0.004-0.001,0.008-0.003c0.15-0.019,0.3-0.043,0.442-0.087
		c0.446-0.134,0.751-0.45,0.968-0.836c0.646-0.505,1.014-1.346,1.162-2.132c0.004-0.023,0.004-0.044,0.008-0.066
		c4.36-0.2,8.721-0.378,13.084-0.515c-0.461,4.061-2.257,8.024-4.803,11.065c-0.905,1.081,0.436,1.446,1.357,1.249
		c9.527-2.036,19.261-2.751,28.777-4.861c4.389-0.975,11.404-2.084,13.975-6.282c2.904-4.741-12.691-9.251-15.038-10.144
		c-4.594-1.748-9.251-3.331-13.858-5.043c-4.543-1.688-8.853-3.969-13.556-5.212c-0.095-0.026-0.206-0.031-0.325-0.028
		c-1.164-0.438-3.684,0.723-3.205,1.708c1.949,4.021,5.172,7.121,6.307,11.546c0.231,0.901,0.369,1.817,0.438,2.739
		c-0.076-0.005-0.149-0.016-0.227-0.013c-4.654,0.143-9.308,0.337-13.959,0.551c-0.395-0.408-0.875-0.757-1.393-1.063
		c-0.918-0.859-2.156-1.462-3.613-1.785c-1.508-0.336-2.768,0.778-3.35,2.104c-0.023,0.056-0.037,0.112-0.059,0.171
		c-0.041,0.083-0.075,0.168-0.108,0.254c-0.138,0.241-0.235,0.494-0.293,0.756c-2.364,0.125-4.728,0.264-7.093,0.401
		c-0.529-1.085-1.363-2.051-2.406-2.684c-0.152-0.092-0.303-0.165-0.455-0.236c-0.691-0.438-1.459-0.728-2.244-0.765
		c-0.961-0.239-1.988-0.189-2.851,0.303c-1.407,0.796-2.026,2.409-2.229,3.994c-1.643,0.102-3.282,0.205-4.924,0.31
		c-0.713-1.366-2.01-2.366-3.766-2.692c-0.869-0.276-1.819-0.271-2.757,0.067c-1.552,0.228-2.972,1.185-3.716,2.632
		c-0.114,0.221-0.207,0.445-0.289,0.673c-7.787,0.509-15.576,1.011-23.367,1.473c-0.278-1.359-0.975-2.612-1.626-3.853
		c-1.833-3.492-3.665-7.008-5.272-10.608c-0.489-1.097-2.039-2.022-2.754-0.675c-1.173,2.216-3.568,2.965-5.922,2.669
		c-2.034-0.254-3.701-2.866-5.172-4.089c-0.45-0.374-1.438-0.844-1.871-0.142c-0.314,0.512-2.078,4.089-1.981,4.25
		c-0.569-0.936-1.145-2.006-2.14-2.565c-3.59-2.009-4.219,4.952-7.545,1.421c-0.522-0.554-1.555-1.393-2.242-0.536
		c-2.118,2.64-3.789,0.417-6.518,0.371c-3.25-0.056-4.855,3.832-7.102,5.431C130.608,350.129,131.604,352.448,132.777,352.999z
		 M265.602,342.989c0.795,0.333,1.592,0.664,2.387,0.997c-1.308,1.494-2.547,3.046-3.835,4.558
		c-0.284-0.935-0.656-1.811-1.087-2.659C264.008,345.048,264.914,344.066,265.602,342.989z M275.596,346.975
		c0.017-0.01,0.027-0.017,0.043-0.029c1.033,0.351,2.102,0.702,3.188,1.051c-3.205,2.299-6.096,4.979-9.184,7.439
		c-2.062,1.644-4.1,3.308-6.098,5.019c0.345-0.999,0.617-2.021,0.814-3.07C267.916,353.756,271.199,349.628,275.596,346.975z
		 M283.014,349.377c-3.146,2.597-6.467,4.967-9.683,7.479c-3.368,2.627-6.417,6.024-9.903,8.429c-0.122,0.083-0.209,0.183-0.27,0.29
		c-0.823,0.14-1.646,0.283-2.469,0.439c0.242-0.35,0.473-0.704,0.695-1.06c6.078-5.713,12.807-11.618,19.73-16.211
		C281.746,348.95,282.381,349.162,283.014,349.377z M292.32,353.319c-0.006,0.004-0.013,0.008-0.018,0.01
		c-3.535,3.29-7.031,6.642-10.972,9.448c-0.171,0.03-0.342,0.063-0.513,0.094c-1.59,0.281-3.18,0.531-4.771,0.772
		c1.833-1.638,3.853-3.043,5.755-4.621c2.748-2.283,5.217-4.813,8.092-6.945C290.726,352.466,291.537,352.879,292.32,353.319z
		 M284.51,362.177c3.248-2.459,6.227-5.246,9.205-8.025c0.578,0.369,1.127,0.762,1.658,1.17c-2.129,1.901-4.264,3.797-6.445,5.643
		c-0.115,0.096-0.191,0.191-0.247,0.284C287.301,361.601,285.908,361.898,284.51,362.177z M292.773,360.057
		c1.316-1.146,2.627-2.296,3.928-3.457C297.586,358.225,294.779,359.396,292.773,360.057z M288.022,351.251
		c-2.628,1.938-5.026,4.125-7.399,6.372c-2.48,2.347-5.41,4.065-7.813,6.497c-1.802,0.259-3.602,0.514-5.4,0.783
		c2.146-1.864,4.178-3.933,6.42-5.656c3.703-2.847,7.49-5.615,11.08-8.603c0.176-0.147,0.256-0.324,0.264-0.505
		C286.135,350.491,287.088,350.86,288.022,351.251z M273.828,346.306c-3.456,2.272-6.291,5.292-9.125,8.295
		c0.059-0.934,0.068-1.883,0.018-2.852c-0.012-0.25-0.04-0.487-0.064-0.727c1.82-2.029,3.48-4.196,5.305-6.223
		C271.246,345.325,272.535,345.834,273.828,346.306z M259.896,340.728c1.262,0.458,2.512,0.954,3.76,1.462
		c-0.421,0.668-0.991,1.337-1.588,1.925C261.379,342.982,260.627,341.875,259.896,340.728z M142.586,348.519
		c1.969,0.887,3.385,0.492,4.701-0.759c0.922,0.931,2.007,1.779,3.229,1.718c0.896-0.047,1.648-0.04,2.31-0.733
		c0.631-0.663,1.716-2.995,2.457-1.778c0.865,1.419,2.122,2.55,3.857,2.154c1.645-0.376,1.953-2.275,2.449-3.781
		c1.931,1.807,3.589,3.526,6.523,3.896c2.254,0.282,4.309-0.617,5.809-2.128c0.85,1.738,1.736,3.458,2.611,5.188
		c0.524,1.034,2.424,3.634,2.4,4.769c-0.006,0.207,0.038,0.426,0.111,0.646c-0.003,0.01-0.006,0.015-0.008,0.021
		c-4.365,0.25-8.73,0.489-13.097,0.699c-2.552,0.122-1.444,3.361,0.681,3.26c3.717-0.179,7.432-0.377,11.146-0.589
		c-0.771,2.787-1.133,5.781-2.037,8.423c-0.269,0.783-0.614,1.714-1.307,2.232c-0.258,0.191-2.602-1.311-3.271-1.213
		c-0.702,0.106-1.314,0.448-1.944,0.763c-1.47,0.735-2.129-0.353-3.554-0.112c-1.108,0.189-1.902,0.521-2.902,1.056
		c-1.546,0.822-2.152-0.878-3.601-0.752c-1.566,0.134-1.813,1.717-3.724,0.921c-0.797-0.331-1.63-0.536-2.479-0.243
		c-1.141,0.394-2.424,1.718-3.765,1.035c-1.206-0.608-2.522-0.748-3.847-0.809c-1.021-0.045-2.219,0.53-3.131,0.882
		c-0.707,0.274-1.365,0.412-2.011,0.481c2.046-3.536,4.365-6.902,6.597-10.333c0.7-1.075,0.01-2.434-0.789-3.237
		c-3.148-3.146-6.193-6.616-9.901-9.123C137.902,349.112,139.569,347.161,142.586,348.519z"/>
</g>
</svg>
